<svg xmlns="http://www.w3.org/2000/svg" xmlns:xlink="http://www.w3.org/1999/xlink" viewBox="0 0 741.21 460.12"><defs><style>.cls-1{fill:#454447;}.cls-2{fill:#201f21;}.cls-15,.cls-3{fill:none;stroke:#1d1d1b;}.cls-15,.cls-16,.cls-17,.cls-3{stroke-miterlimit:10;}.cls-4{fill:#561214;}.cls-5{fill:#8c181b;}.cls-6{fill:#5e5c61;}.cls-7{fill:#3b3a3d;}.cls-8{fill:url(#Градиент_фиолетовый);}.cls-9{fill:#951b81;}.cls-10{fill:url(#Градиент_фиолетовый-2);}.cls-11{fill:url(#Градиент_фиолетовый-3);}.cls-12{fill:url(#Клюв-Голова);}.cls-13{fill:url(#Безымянный_градиент_210);}.cls-14{fill:url(#Безымянный_градиент_210-2);}.cls-15{stroke-width:3px;}.cls-16{fill:#e94e1b;}.cls-16,.cls-17{stroke:#e30613;stroke-width:0.25px;}.cls-17{fill:#1d1d1b;}</style><linearGradient id="Градиент_фиолетовый" x1="607.5" y1="223.05" x2="632.2" y2="219.12" gradientUnits="userSpaceOnUse"><stop offset="0" stop-color="#822172"/><stop offset="0.2" stop-color="#822774"/><stop offset="0.4" stop-color="#832e76"/><stop offset="0.6" stop-color="#823476"/><stop offset="0.8" stop-color="#813a76"/><stop offset="1" stop-color="#804077"/></linearGradient><linearGradient id="Градиент_фиолетовый-2" x1="603.74" y1="199.45" x2="628.44" y2="195.52" xlink:href="#Градиент_фиолетовый"/><linearGradient id="Градиент_фиолетовый-3" x1="601.5" y1="185.35" x2="626.2" y2="181.42" xlink:href="#Градиент_фиолетовый"/><linearGradient id="Клюв-Голова" x1="758" y1="174.55" x2="801.04" y2="174.55" gradientUnits="userSpaceOnUse"><stop offset="0" stop-color="#0e8140"/><stop offset="0.03" stop-color="#0f743e"/><stop offset="0.12" stop-color="#115739"/><stop offset="0.22" stop-color="#134036"/><stop offset="0.33" stop-color="#142d33"/><stop offset="0.46" stop-color="#152131"/><stop offset="0.63" stop-color="#16192f"/><stop offset="1" stop-color="#16172f"/></linearGradient><linearGradient id="Безымянный_градиент_210" x1="642.59" y1="196.86" x2="694.97" y2="169.95" gradientUnits="userSpaceOnUse"><stop offset="0" stop-color="#804077"/><stop offset="0.2" stop-color="#7f4181"/><stop offset="0.4" stop-color="#754181"/><stop offset="0.49" stop-color="#734380"/><stop offset="0.52" stop-color="#6d4a7b"/><stop offset="0.55" stop-color="#635773"/><stop offset="0.58" stop-color="#546968"/><stop offset="0.6" stop-color="#42805a"/><stop offset="0.6" stop-color="#408259"/><stop offset="0.8" stop-color="#2e824e"/><stop offset="1" stop-color="#188140"/></linearGradient><linearGradient id="Безымянный_градиент_210-2" x1="648.8" y1="208.97" x2="701.19" y2="182.06" xlink:href="#Безымянный_градиент_210"/></defs><title>Pigeon_2</title><g id="левое_Крыло" data-name="левое Крыло"><path class="cls-1" d="M457.15,195.21,356.76,207c-1.29,28.6-36.76,36-36.76,36,7.2,15-14.16,30.75-14.16,30.75,12.88,11.37-4.25,28.54-4.25,28.54,28.73,6.75,4.29,28.05,4.29,28.05,30.08-1.85,10.64,37.89,10.64,37.89,23.69-11.88,22.62,27.1,22.62,27.1,19.05-1.42,20.88,26.38,20.88,26.38,2.1-4,3-13.21,3-13.21,1.26-21.93,28.3-39.71,28.3-39.71s35.16-21.42,27.65-90.13S457.15,195.21,457.15,195.21Z" transform="translate(-59.83 -117)"/><path class="cls-2" d="M270.5,358.52c-33.35,41.09-18,99.34-18,99.34.48-15.7,28-51.25,31.7-54.4s3.18.7,3.18.7C245.67,480.65,282,528.94,282,528.94c.43-32.1,22.23-71.34,26.3-74.33s2.78,2.11,2.78,2.11c-17.17,74.59,26.76,106.5,26.76,106.5-9-61.77,20.06-137.59,22.17-141.6,0,0-1.83-27.8-20.88-26.38,0,0,1.07-39-22.62-27.1,0,0,19.44-39.74-10.64-37.89,0,0,24.44-21.3-4.29-28.05,0,0,17.13-17.17,4.25-28.54,0,0,21.36-15.8,14.16-30.75,0,0,35.47-7.36,36.76-36l-20.34,2.38C284.72,232.82,299.68,247,299.68,247c-66.81,28.74-29.8,37.76-29.8,37.76-38,28.5-1,29.72-1,29.72C232.56,342.1,240.07,389,240.07,389,247.72,377.32,269.81,359.09,270.5,358.52Z" transform="translate(-59.83 -117)"/><path class="cls-3" d="M270.52,358.51h0c-.69.57-22.78,18.8-30.43,30.46,0,0-7.51-46.88,28.77-74.48,0,0-37-1.22,1-29.72,0,0-37-9,29.8-37.76,0,0-15-14.2,36.74-37.69L356.76,207l100.39-11.74S411.5,209.87,419,278.57s-27.65,90.13-27.65,90.13-27,17.78-28.3,39.71c0,0-.93,9.2-3,13.21s-31.16,79.83-22.17,141.6c0,0-43.93-31.91-26.76-106.5,0,0,1.29-5.11-2.78-2.11s-25.87,42.23-26.3,74.33c0,0-36.34-48.29,5.34-124.78,0,0,.51-3.86-3.18-.7s-31.22,38.7-31.7,54.4c0,0-15.32-58.25,18-99.34" transform="translate(-59.83 -117)"/><path class="cls-3" d="M360,421.62s-1.83-27.8-20.88-26.38c0,0,1.07-39-22.62-27.1,0,0,19.44-39.74-10.64-37.89,0,0,24.44-21.3-4.29-28.05,0,0,17.13-17.17,4.25-28.54,0,0,21.36-15.8,14.16-30.75,0,0,35.47-7.36,36.76-36" transform="translate(-59.83 -117)"/></g><g id="ноги"><path id="дальняя" class="cls-4" d="M339.56,283.25s-5.16,17-6.1,17.84-12.22,12.56-14.72,7.82c0,0-10.89-16.84-5.9-22.55,0,0,2.23,2.49,2.11,4.94,0,0,.37.61.66.51s1.39-4.61,3.46-5.31c0,0,1.86,2.22.31,6.34,0,0-.38,8.59,5.28,4.54s2.14-13.06-4.88-15.17a9.27,9.27,0,0,1,11.87,4.42s1.61-7,2.13-8.48Z" transform="translate(-59.83 -117)"/><path id="ближняя" class="cls-5" d="M350.07,295.57s-6.88,22.72-8.15,23.8-16.3,16.76-19.63,10.43c0,0-14.53-22.46-7.87-30.08,0,0,3,3.32,2.81,6.59,0,0,.49.81.88.67s1.86-6.15,4.62-7.08c0,0,2.48,3,.41,8.47,0,0-.51,11.46,7.05,6.05S333,297,323.68,294.19c0,0,9.95-4.42,15.83,5.89,0,0,2.15-9.3,2.85-11.32Z" transform="translate(-59.83 -117)"/></g><g id="Хвост"><path class="cls-6" d="M327.79,210.8l-13.27,83.59-5.95-5.56c-8,6.07-15.17-2-15.17-2-8.25,3-9.16-.77-9.16-.77-1.86-14-64.34,19.07-64.34,19.07a337.43,337.43,0,0,1-30.26,16.08c-170.73-8.41-41-105.9-41-105.9C206.32,206.87,327.79,210.8,327.79,210.8Z" transform="translate(-59.83 -117)"/><path class="cls-7" d="M189.64,321.19c-37,16.95-38.52,4.57-38.52,4.57-48.8,18.5-39.52.41-39.52.41-25.21,9.73-30.85-.57-30.85-.57C49.15,330,87.18,307.2,85,305.74s-.7-5.23-.7-5.23c-19.93,1.55-16.66-8.7-16.66-8.7-12.1-1.35-6.55-6.76-6.55-6.76C86.86,275,82.24,270,82.24,270c-10.4.15-12.55-8.74-13.79-11.7s27.44-8.4,27.44-8.4C85,245.26,94.05,233,94.05,233c.89-2.74,24.89-6.37,24.89-6.37.82-5.19,12.38-8.82,29.69-11.35C148.63,215.29,18.91,312.78,189.64,321.19Z" transform="translate(-59.83 -117)"/></g><g id="Body"><path class="cls-8" d="M588.57,180.13c0-.06,0-.12,0-.18l-.09-.29c23.15-7.31,53.58-22.85,53.58-22.85V278.15l-.3.18A101.93,101.93,0,0,1,628.66,271a90.36,90.36,0,0,1-11.27-8.78,84.69,84.69,0,0,1-12-13.47,88.79,88.79,0,0,1-7.85-13.45,94.65,94.65,0,0,1-4.89-12.74A103.71,103.71,0,0,1,589.57,209a115.79,115.79,0,0,1-1-28.89Z" transform="translate(-59.83 -117)"/><path class="cls-9" d="M642.08,278.15l-.12.27-.18-.09Z" transform="translate(-59.83 -117)"/><path class="cls-6" d="M641.78,278.33l.18.09c-8.66,19.72-42.13,60.51-42.13,60.51-117.53,158.16-285.6-43.49-285.6-43.49V210.69L573.32,183.2a82.44,82.44,0,0,0,15.18-3.54l.09.29c0,.06,0,.12,0,.18l-12.08,8.37,10.67,6.28-10.67,9.36L589.56,209l-12,8.66,15.17,4.87-11.82,9.26,15.5,4.06-9.06,11.47L605,249.08l-5.63,15.53,17.59-1.88-.36,16.67,11.79-7.93.43,14.85Z" transform="translate(-59.83 -117)"/><path class="cls-9" d="M641.78,278.33l-13,8-.43-14.85.31-.48A101.93,101.93,0,0,0,641.78,278.33Z" transform="translate(-59.83 -117)"/><path class="cls-9" d="M628.66,271l-.31.48-11.79,7.93.36-16.67.47-.52A90.36,90.36,0,0,0,628.66,271Z" transform="translate(-59.83 -117)"/><path class="cls-9" d="M617.39,262.21l-.47.52-17.59,1.88L605,249.08l.47-.34A84.69,84.69,0,0,0,617.39,262.21Z" transform="translate(-59.83 -117)"/><path class="cls-9" d="M605.43,248.74l-.47.34-17.65-1.74,9.06-11.47,1.21-.58A88.79,88.79,0,0,0,605.43,248.74Z" transform="translate(-59.83 -117)"/><path class="cls-9" d="M597.58,235.29l-1.21.58-15.5-4.06,11.82-9.26A94.65,94.65,0,0,0,597.58,235.29Z" transform="translate(-59.83 -117)"/><path class="cls-9" d="M592.69,222.55l-15.17-4.87,12-8.66h0A103.71,103.71,0,0,0,592.69,222.55Z" transform="translate(-59.83 -117)"/><path class="cls-10" d="M589.57,209h0l-13.07-4.88,10.67-9.36,1,0A113,113,0,0,0,589.57,209Z" transform="translate(-59.83 -117)"/><path class="cls-11" d="M576.49,188.5l12.08-8.37a112.81,112.81,0,0,0-.4,14.62l-1,0Z" transform="translate(-59.83 -117)"/></g><g id="правое_Крыло" data-name="правое Крыло"><path class="cls-7" d="M474,193.66a31.69,31.69,0,0,1-.29,3.16L574.81,184.7h0a42.48,42.48,0,0,1,7.54-3.59Z" transform="translate(-59.83 -117)"/><path class="cls-6" d="M414.24,295.86c31,7.26,4.55,30.09,4.55,30.09,32.45-1.95,11.36,40.69,11.36,40.69,25.59-12.74,24.32,29.1,24.32,29.1,20.56-1.51,22.44,28.32,22.44,28.32,2.28-4.31,3.32-14.17,3.32-14.17,1.41-23.54,30.64-42.62,30.64-42.62s38-23,30.1-96.71c-5.63-52.67,17.89-75.73,31.8-84.61.71-.46,1.39-.87,2-1.25L473.75,196.82c-3.83,28.09-39.46,35.42-39.46,35.42,7.72,16-15.37,33-15.37,33C432.78,277.45,414.24,295.86,414.24,295.86Z" transform="translate(-59.83 -117)"/><path class="cls-7" d="M380.55,356.3c-36.11,44.08-19.76,106.6-19.76,106.6.57-16.85,30.38-55,34.36-58.37s3.42.76,3.42.76c-44.83,81.43-6.72,133.1-6.12,133.9.56-34.45,24.17-76.54,28.58-79.75s3,2.26,3,2.26C405.27,541.75,452.56,576,452.56,576c-9.51-66.3,22.07-147.67,24.35-152,0,0-1.88-29.83-22.44-28.32,0,0,1.27-41.84-24.32-29.1,0,0,21.09-42.64-11.36-40.69,0,0,26.43-22.83-4.55-30.09,0,0,18.54-18.41,4.68-30.62,0,0,23.09-17,15.37-33,0,0,35.63-7.33,39.46-35.42a31.69,31.69,0,0,0,.29-3.16l-21.93,2.54c-55.84,25.2-39.76,40.44-39.76,40.44-71.3,30.47-33.15,40.28-32.26,40.51-40.58,30.21-2.11,31.87-1.22,31.9C339.68,338.66,347.63,389,347.63,389,355.91,376.46,379.81,356.9,380.55,356.3Z" transform="translate(-59.83 -117)"/><path class="cls-3" d="M380.1,277.15h0c-.89-.23-39-10,32.26-40.51,0,0-16.08-15.24,39.76-40.44L474,193.66l108.32-12.55a42.48,42.48,0,0,0-7.54,3.59" transform="translate(-59.83 -117)"/><path class="cls-3" d="M378.88,309.05h0c-.89,0-39.36-1.69,1.22-31.9" transform="translate(-59.83 -117)"/><path class="cls-3" d="M380.57,356.28l0,0c-.74.6-24.64,20.16-32.92,32.67,0,0-7.95-50.31,31.24-79.92" transform="translate(-59.83 -117)"/><path class="cls-3" d="M392.45,539.2h0c-.6-.8-38.71-52.47,6.12-133.9,0,0,.58-4.15-3.42-.76s-33.79,41.52-34.36,58.37c0,0-16.35-62.52,19.76-106.6" transform="translate(-59.83 -117)"/><path class="cls-3" d="M574.81,184.7c-.65.38-1.33.79-2,1.25-13.91,8.88-37.43,31.94-31.8,84.61,7.89,73.75-30.1,96.71-30.1,96.71s-29.23,19.08-30.64,42.62c0,0-1,9.86-3.32,14.17s-33.86,85.67-24.35,152c0,0-47.29-34.28-28.54-114.33,0,0,1.41-5.47-3-2.26s-28,45.3-28.58,79.75" transform="translate(-59.83 -117)"/><path class="cls-3" d="M476.91,424.06s-1.88-29.83-22.44-28.32c0,0,1.27-41.84-24.32-29.1,0,0,21.09-42.64-11.36-40.69,0,0,26.43-22.83-4.55-30.09,0,0,18.54-18.41,4.68-30.62,0,0,23.09-17,15.37-33,0,0,35.63-7.33,39.46-35.42a31.69,31.69,0,0,0,.29-3.16" transform="translate(-59.83 -117)"/><polyline class="cls-3" points="413.92 79.82 514.98 67.7 514.99 67.7"/></g><g id="Head"><path class="cls-12" d="M780.17,166.76c2.75,1.65,23.86,13.31,20.51,20.44,0,0-1.9,2.41-12.06,1.61,0,0-12.21.23-25.6,1.37-14.45-20.15,6.91-31.27,6.91-31.27A81.12,81.12,0,0,0,780.17,166.76Z" transform="translate(-59.83 -117)"/><path class="cls-13" d="M759.8,146.49c1.87,4.28,6,8.75,10.13,12.42,0,0-21.36,11.12-6.91,31.27-12.92,1.1-26.94,3.06-32.17,6.49a308,308,0,0,0-43.76,30.08c-29.55-39-27.9-88.85-27.9-88.85,8.61-8.18,19.31-16.37,29.32-18.54,21.64-4.69,43.5-3.06,60.21,11C748.72,130.39,755.94,137.62,759.8,146.49Z" transform="translate(-59.83 -117)"/><path class="cls-14" d="M659.19,137.9s-1.65,49.81,27.9,88.85c-16.7,13.74-34.27,31.42-45,51.4V156.81A176.24,176.24,0,0,1,659.19,137.9Z" transform="translate(-59.83 -117)"/><path class="cls-15" d="M742.22,137.33c-6.16-.86-3.59-6.15-20.56-6.54" transform="translate(-59.83 -117)"/></g><g id="глаз"><ellipse class="cls-16" cx="733.61" cy="144.45" rx="6.72" ry="8.3" transform="translate(23.67 396.79) rotate(-40.74)"/><circle class="cls-17" cx="674.21" cy="27.95" r="3.54"/></g></svg>