<?xml version="1.0" encoding="utf-8"?>
<!-- Generator: Adobe Illustrator 24.0.2, SVG Export Plug-In . SVG Version: 6.00 Build 0)  -->
<svg version="1.1" xmlns="http://www.w3.org/2000/svg" xmlns:xlink="http://www.w3.org/1999/xlink" x="0px" y="0px"
	 viewBox="0 0 841.9 595.3" style="enable-background:new 0 0 841.9 595.3;" xml:space="preserve">
<style type="text/css">
	.st0{fill:#454447;}
	.st1{fill:#201F21;}
	.st2{fill:none;stroke:#000000;stroke-miterlimit:10;}
	.st3{fill:#561214;}
	.st4{fill:#8C181B;}
	.st5{fill:#3B3A3D;}
	.st6{fill:#5E5C61;}
	.st7{fill:url(#SVGID_1_);}
	.st8{fill:#951B81;}
	.st9{fill:url(#SVGID_2_);}
	.st10{fill:url(#SVGID_3_);}
	.st11{fill:url(#SVGID_4_);}
	.st12{fill:url(#SVGID_5_);}
	.st13{fill:url(#SVGID_6_);}
	.st14{fill:none;stroke:#000000;stroke-width:3;stroke-miterlimit:10;}
	.st15{display:none;}
	.st16{display:inline;}
	.st17{fill:#941E81;}
	.st18{fill:#932081;}
	.st19{fill:#932380;}
	.st20{fill:#922580;}
	.st21{fill:#912780;}
	.st22{fill:#902980;}
	.st23{fill:#8F2A7F;}
	.st24{fill:#8E2C7F;}
	.st25{fill:#8D2E7F;}
	.st26{fill:#8C2F7E;}
	.st27{fill:#8B317E;}
	.st28{fill:#89327D;}
	.st29{fill:#88347D;}
	.st30{fill:#87357D;}
	.st31{fill:#86367C;}
	.st32{fill:#85377C;}
	.st33{fill:#84387B;}
	.st34{fill:#833A7B;}
	.st35{fill:#823B7A;}
	.st36{fill:#813C7A;}
	.st37{fill:#803D79;}
	.st38{fill:#7F3E79;}
	.st39{fill:#7E3F78;}
	.st40{fill:#7C4078;}
	.st41{fill:#7B4277;}
	.st42{fill:#7A4377;}
	.st43{fill:#794476;}
	.st44{fill:#784576;}
	.st45{fill:#774675;}
	.st46{fill:#764775;}
	.st47{fill:#754874;}
	.st48{fill:#744974;}
	.st49{fill:#724A73;}
	.st50{fill:#714B73;}
	.st51{fill:#704C72;}
	.st52{fill:#6F4C72;}
	.st53{fill:#6E4D71;}
	.st54{fill:#6D4E70;}
	.st55{fill:#6C4F70;}
	.st56{fill:#6A506F;}
	.st57{fill:#69506E;}
	.st58{fill:#68516E;}
	.st59{fill:#67526D;}
	.st60{fill:#66526C;}
	.st61{fill:#65536B;}
	.st62{fill:#63546B;}
	.st63{fill:#62556A;}
	.st64{fill:#615569;}
	.st65{fill:#605668;}
	.st66{fill:#5E5768;}
	.st67{fill:#5D5767;}
	.st68{fill:#5C5866;}
	.st69{fill:#5B5865;}
	.st70{fill:#5A5964;}
	.st71{fill:#585963;}
	.st72{fill:#575A62;}
	.st73{fill:#565A61;}
	.st74{fill:#555B61;}
	.st75{fill:#535B60;}
	.st76{fill:#525C5F;}
	.st77{fill:#515C5E;}
	.st78{fill:#505D5D;}
	.st79{fill:#4E5D5C;}
	.st80{fill:#4D5D5B;}
	.st81{fill:#4C5E5A;}
	.st82{fill:#4A5E59;}
	.st83{fill:#495E58;}
	.st84{fill:#475F56;}
	.st85{fill:#465F55;}
	.st86{fill:#455F54;}
	.st87{fill:#436053;}
	.st88{fill:#426052;}
	.st89{fill:#416051;}
	.st90{fill:#3F6150;}
	.st91{fill:#3E614F;}
	.st92{fill:#3C614E;}
	.st93{fill:#3B614D;}
	.st94{fill:#39624C;}
	.st95{fill:#38624A;}
	.st96{fill:#366249;}
	.st97{fill:#346248;}
	.st98{fill:#336247;}
	.st99{fill:#316346;}
	.st100{fill:#2F6345;}
	.st101{fill:#2E6343;}
	.st102{fill:#2C6342;}
	.st103{fill:#2A6341;}
	.st104{fill:#286440;}
	.st105{fill:#26643F;}
	.st106{fill:#24643E;}
	.st107{fill:#21643D;}
	.st108{fill:#1F643C;}
	.st109{fill:#1C643B;}
	.st110{fill:#1A653A;}
	.st111{fill:#176539;}
	.st112{fill:#136538;}
	.st113{fill:#0F6537;}
	.st114{fill:#0B6536;}
	.st115{fill:#056535;}
	.st116{fill:#006534;}
	.st117{fill:#006633;}
	.st118{display:inline;fill:url(#SVGID_7_);}
	.st119{display:inline;fill:url(#SVGID_8_);}
	.st120{display:inline;fill:url(#SVGID_9_);}
	.st121{display:inline;fill:url(#SVGID_10_);}
	.st122{display:inline;fill:url(#SVGID_11_);}
	.st123{display:inline;fill:url(#SVGID_12_);}
	.st124{display:inline;fill:url(#SVGID_13_);}
	.st125{display:inline;fill:url(#SVGID_14_);}
	.st126{display:inline;fill:#5E5C61;}
	.st127{display:inline;fill:#454447;}
	.st128{fill:#E94E1B;stroke:#E30613;stroke-width:0.25;stroke-miterlimit:10;}
	.st129{stroke:#E30613;stroke-width:0.25;stroke-miterlimit:10;}
</style>
<g id="левое_Крыло">
	<g id="XMLID_3_">
		<g>
			<path class="st0" d="M460.6,376.2l-98.8,19.3c-9.9-26.6-45.8-22.8-45.8-22.8c2.3-16.3-22.8-24.7-22.8-24.7
				c8.8-14.6-12.7-25.6-12.7-25.6c25.2-15.1-4.4-27.7-4.4-27.7c29.1-7.4-1.4-38.9-1.4-38.9c26.1,4,13.2-32.4,13.2-32.4
				c18.5-4.4,11.8-31.2,11.8-31.2c3.2,3.1,6.9,11.5,6.9,11.5c7.8,20.3,38.9,28.9,38.9,28.9s39.8,9.6,53.5,76.6
				C412.8,376.2,460.6,376.2,460.6,376.2z"/>
			<path class="st1" d="M234,278.7c-44.1-28.6-47.2-88.2-47.2-88.2c5.2,14.7,42.1,39.8,46.6,41.7c4.5,1.9,2.8-1.6,2.8-1.6
				c-62.7-59.5-42.9-116-42.9-116c10.1,30.1,42.7,60.5,47.5,62.1c4.8,1.6,2-2.8,2-2.8c-38.9-65.1-6.9-108.5-6.9-108.5
				c10.2,61,60.7,123.7,64,126.8c0,0,6.7,26.8-11.8,31.2c0,0,12.8,36.4-13.2,32.4c0,0,30.5,31.6,1.4,38.9c0,0,29.6,12.7,4.4,27.7
				c0,0,21.5,11,12.7,25.6c0,0,25,8.4,22.8,24.7c0,0,35.9-3.8,45.8,22.8l-20,3.9c-56.1-6.5-46.3-24.4-46.3-24.4
				c-72.1-6.9-39.7-26.6-39.7-26.6c-44.7-15.4-10-27.7-10-27.7c-42.8-15-49.9-61.5-49.9-61.5C206.7,267.8,233.2,278.3,234,278.7z"/>
		</g>
		<g>
			<path class="st2" d="M234.1,278.7C234.1,278.7,234.1,278.7,234.1,278.7c-0.8-0.3-27.3-10.8-38.1-19.5c0,0,7.1,46.5,49.9,61.5
				c0,0-34.7,12.3,10,27.7c0,0-32.4,19.7,39.7,26.6c0,0-9.9,17.9,46.3,24.4l20-3.9l98.8-19.3c0,0-47.7,0-61.4-67.1
				c-13.7-67.1-53.5-76.6-53.5-76.6s-31-8.6-38.9-28.9c0,0-3.7-8.4-6.9-11.5c-3.2-3.1-53.8-65.8-64-126.8c0,0-32,43.4,6.9,108.5
				c0,0,2.8,4.4-2,2.8c-4.8-1.6-37.3-32-47.5-62.1c0,0-19.8,56.5,42.9,116c0,0,1.7,3.5-2.8,1.6c-4.5-1.9-41.3-27-46.6-41.7
				C186.8,190.5,190,250,234.1,278.7"/>
			<path class="st2" d="M299.8,192.1c0,0,6.7,26.8-11.8,31.2c0,0,12.8,36.4-13.2,32.4c0,0,30.5,31.6,1.4,38.9
				c0,0,29.6,12.7,4.4,27.7c0,0,21.5,11,12.7,25.6c0,0,25,8.4,22.8,24.7c0,0,35.9-3.8,45.8,22.8"/>
		</g>
	</g>
</g>
<g id="ноги">
	<path id="дальняя" class="st3" d="M328.2,488.7c0,0-5.2,17-6.1,17.8c-0.9,0.8-12.2,12.6-14.7,7.8c0,0-10.9-16.8-5.9-22.5
		c0,0,2.2,2.5,2.1,4.9c0,0,0.4,0.6,0.7,0.5c0.3-0.1,1.4-4.6,3.5-5.3c0,0,1.9,2.2,0.3,6.3c0,0-0.4,8.6,5.3,4.5
		c5.7-4.1,2.1-13.1-4.9-15.2c0,0,7.5-3.3,11.9,4.4c0,0,1.6-7,2.1-8.5L328.2,488.7z"/>
	<path id="ближняя" class="st4" d="M338.8,501c0,0-6.9,22.7-8.2,23.8c-1.3,1.1-16.3,16.8-19.6,10.4c0,0-14.5-22.5-7.9-30.1
		c0,0,3,3.3,2.8,6.6c0,0,0.5,0.8,0.9,0.7c0.4-0.1,1.9-6.2,4.6-7.1c0,0,2.5,3,0.4,8.5c0,0-0.5,11.5,7,6.1s2.9-17.4-6.5-20.2
		c0,0,10-4.4,15.8,5.9c0,0,2.2-9.3,2.8-11.3L338.8,501z"/>
</g>
<g id="правое_Крыло">
	<g id="XMLID_4_">
		<g>
			<path class="st5" d="M580.6,363.1l-108.4,11.5c-0.3-1-0.6-2-1-3l101.3-10.3h0C577.4,362.8,580.6,363.1,580.6,363.1z"/>
			<path class="st6" d="M572.4,361.3l-101.3,10.3c-9.9-26.6-46.3-25.9-46.3-25.9c4-17.4-22.2-28.8-22.2-28.8
				c10.9-15-11.3-28.9-11.3-28.9c28.6-13.9-2.2-30.4-2.2-30.4c32.1-5.2,2.2-42.2,2.2-42.2c27.8,6.8,17.4-33.7,17.4-33.7
				c20.4-3,15.7-32.6,15.7-32.6c3.2,3.7,6.3,13.1,6.3,13.1c6.5,22.7,39.2,34.9,39.2,34.9s42.1,14.1,50.6,87.8
				c6,52.6,34.1,70,49.6,75.6C570.9,360.8,571.7,361,572.4,361.3z"/>
			<path class="st5" d="M345.3,236.4c-44.9-35.1-42.6-99.7-42.6-99.7c4.2,16.3,41.7,47,46.3,49.4c4.6,2.4,3.2-1.5,3.2-1.5
				C290,114.5,316.8,55.4,316.8,55.4c8.1,33.5,40.4,69.4,45.4,71.6c5,2.2,2.4-2.9,2.4-2.9c-35.8-74,2.8-117.8,2.8-117.8
				c5.3,66.8,53.9,139.2,57.1,142.9c0,0,4.7,29.5-15.7,32.6c0,0,10.4,40.5-17.4,33.7c0,0,29.9,37-2.2,42.2c0,0,30.8,16.5,2.2,30.4
				c0,0,22.1,13.9,11.3,28.9c0,0,26.2,11.5,22.2,28.8c0,0,36.4-0.7,46.3,25.9c0.4,1,0.7,2,1,3l-22,2.3c-60-12.3-47.6-30.7-47.6-30.7
				c-77.1-14.3-40.4-32.4-40.4-32.4c-46.8-20.8-8.2-30.9-8.2-30.9c-44.8-20.3-48-71.1-48-71.1C316.8,222.2,344.4,236,345.3,236.4z"
				/>
		</g>
		<g>
			<path class="st2" d="M345.3,236.4C345.3,236.4,345.3,236.4,345.3,236.4c-0.9-0.4-28.5-14.3-39.3-24.7c0,0,3.3,50.8,48,71.1
				c0,0-38.6,10,8.2,30.9c0,0-36.8,18.2,40.4,32.4c0,0-12.4,18.4,47.6,30.7l22-2.3l108.4-11.5c0,0-3.2-0.3-8.1-1.9"/>
			<path class="st2" d="M572.4,361.3c-0.7-0.2-1.5-0.5-2.3-0.8c-15.5-5.6-43.5-23-49.6-75.6c-8.5-73.7-50.6-87.8-50.6-87.8
				s-32.7-12.2-39.2-34.9c0,0-3.2-9.4-6.3-13.1c-3.2-3.7-51.8-76.2-57.1-142.9c0,0-38.6,43.8-2.8,117.8c0,0,2.6,5-2.4,2.9
				c-5-2.2-37.3-38.1-45.4-71.6c0,0-26.7,59.1,35.3,129.3c0,0,1.5,3.9-3.2,1.5c-4.6-2.4-42.1-33.1-46.3-49.4c0,0-2.3,64.6,42.6,99.7
				"/>
			<path class="st2" d="M424.4,149.2c0,0,4.7,29.5-15.7,32.6c0,0,10.4,40.5-17.4,33.7c0,0,29.9,37-2.2,42.2c0,0,30.8,16.5,2.2,30.4
				c0,0,22.1,13.9,11.3,28.9c0,0,26.2,11.5,22.2,28.8c0,0,36.4-0.7,46.3,25.9c0.4,1,0.7,2,1,3"/>
			<polyline class="st2" points="471.2,371.6 572.4,361.3 572.4,361.3 			"/>
		</g>
	</g>
</g>
<g id="Хвост">
	<g id="XMLID_5_">
		<g>
			<path class="st6" d="M314.2,390.7v84.6l-6.8-4.6c-7,7.3-15.3,0.4-15.3,0.4c-7.7,4.2-9.2,0.7-9.2,0.7c-4-13.5-60.5,28.9-60.5,28.9
				c-10.8,8.9-19.8,15.6-27.4,20.6C25.2,539.9,138,423.2,138,423.2C193.6,405.9,314.2,390.7,314.2,390.7z"/>
			<path class="st5" d="M195.1,521.4c-33.9,22.5-37.3,10.6-37.3,10.6c-45.3,25.9-39,6.6-39,6.6c-23.4,13.6-30.6,4.3-30.6,4.3
				c-30.5,9.3,3.5-19.2,1.1-20.3c-2.4-1.1-1.5-5.1-1.5-5.1c-19.4,4.7-17.8-6-17.8-6c-12.2,0.6-7.5-5.6-7.5-5.6
				c23.9-14,18.5-18.2,18.5-18.2c-10.3,1.8-13.8-6.7-15.5-9.4c-1.7-2.7,25.8-12.6,25.8-12.6c-11.5-2.9-4.5-16.4-4.5-16.4
				c0.4-2.9,23.6-10.2,23.6-10.2c0-5.3,10.8-10.7,27.6-15.9C138,423.2,25.2,539.9,195.1,521.4z"/>
		</g>
		<g>
		</g>
	</g>
</g>
<g id="Body">
	<g id="XMLID_1_">
		<g>
			<linearGradient id="SVGID_1_" gradientUnits="userSpaceOnUse" x1="607.4996" y1="403.0515" x2="632.2" y2="399.119">
				<stop  offset="0" style="stop-color:#822172"/>
				<stop  offset="0.2" style="stop-color:#822774"/>
				<stop  offset="0.4" style="stop-color:#832E76"/>
				<stop  offset="0.6" style="stop-color:#823476"/>
				<stop  offset="0.8" style="stop-color:#813A76"/>
				<stop  offset="1" style="stop-color:#804077"/>
			</linearGradient>
			<path class="st7" d="M588.6,360.1c0-0.1,0-0.1,0-0.2l-0.1-0.3c23.2-7.3,53.6-22.9,53.6-22.9v121.3l-0.3,0.2
				c-4.8-2.2-9.1-4.7-13.1-7.3c-4.2-2.8-7.9-5.7-11.3-8.8c-4.7-4.3-8.6-8.8-12-13.5c-3.1-4.4-5.7-8.9-7.8-13.4
				c-2-4.3-3.6-8.5-4.9-12.7c-1.4-4.6-2.4-9.2-3.1-13.5c-0.8-5.1-1.3-10-1.4-14.3C588,368.7,588.2,363.6,588.6,360.1z"/>
			<path class="st8" d="M642.1,458.1c0,0.1-0.1,0.2-0.1,0.3c-0.1,0-0.1-0.1-0.2-0.1L642.1,458.1z"/>
			<path class="st6" d="M641.8,458.3c0.1,0,0.1,0.1,0.2,0.1c-8.7,19.7-42.1,60.5-42.1,60.5c-117.5,158.2-285.6-43.5-285.6-43.5
				v-84.8c0,0,237.5-25.2,259.1-27.5c4.3-0.5,9.5-1.8,15.2-3.5l0.1,0.3c0,0.1,0,0.1,0,0.2l-12.1,8.4l10.7,6.3l-10.7,9.4l13.1,4.9
				l-12,8.7l15.2,4.9l-11.8,9.3l15.5,4.1l-9.1,11.5l17.7,1.7l-5.6,15.5l17.6-1.9l-0.4,16.7l11.8-7.9l0.4,14.9L641.8,458.3z"/>
			<path class="st8" d="M641.8,458.3l-13,8l-0.4-14.9l0.3-0.5C632.6,453.6,637,456.1,641.8,458.3z"/>
			<path class="st8" d="M628.7,451l-0.3,0.5l-11.8,7.9l0.4-16.7l0.5-0.5C620.8,445.3,624.5,448.2,628.7,451z"/>
			<path class="st8" d="M617.4,442.2l-0.5,0.5l-17.6,1.9l5.6-15.5l0.5-0.3C608.8,433.4,612.7,438,617.4,442.2z"/>
			<path class="st8" d="M605.4,428.7l-0.5,0.3l-17.7-1.7l9.1-11.5l1.2-0.6C599.7,419.8,602.3,424.3,605.4,428.7z"/>
			<path class="st8" d="M597.6,415.3l-1.2,0.6l-15.5-4.1l11.8-9.3C594,406.8,595.6,411,597.6,415.3z"/>
			<path class="st8" d="M592.7,402.5l-15.2-4.9l12-8.7h0C590.3,393.4,591.3,397.9,592.7,402.5z"/>
			<linearGradient id="SVGID_2_" gradientUnits="userSpaceOnUse" x1="603.7424" y1="379.4518" x2="628.4428" y2="375.5194">
				<stop  offset="0" style="stop-color:#822172"/>
				<stop  offset="0.2" style="stop-color:#822774"/>
				<stop  offset="0.4" style="stop-color:#832E76"/>
				<stop  offset="0.6" style="stop-color:#823476"/>
				<stop  offset="0.8" style="stop-color:#813A76"/>
				<stop  offset="1" style="stop-color:#804077"/>
			</linearGradient>
			<path class="st9" d="M589.6,389L589.6,389l-13.1-4.9l10.7-9.4l1,0C588.3,379.1,588.7,383.9,589.6,389z"/>
			<linearGradient id="SVGID_3_" gradientUnits="userSpaceOnUse" x1="601.4974" y1="365.3501" x2="626.1978" y2="361.4177">
				<stop  offset="0" style="stop-color:#822172"/>
				<stop  offset="0.2" style="stop-color:#822774"/>
				<stop  offset="0.4" style="stop-color:#832E76"/>
				<stop  offset="0.6" style="stop-color:#823476"/>
				<stop  offset="0.8" style="stop-color:#813A76"/>
				<stop  offset="1" style="stop-color:#804077"/>
			</linearGradient>
			<path class="st10" d="M576.5,368.5l12.1-8.4c-0.3,3.5-0.6,8.5-0.4,14.6l-1,0L576.5,368.5z"/>
		</g>
		<g>
		</g>
	</g>
</g>
<g id="Head">
	<g>
		<g id="XMLID_2_">
			<g>
				<linearGradient id="SVGID_4_" gradientUnits="userSpaceOnUse" x1="758.0031" y1="354.545" x2="801.0392" y2="354.545">
					<stop  offset="0" style="stop-color:#0E8140"/>
					<stop  offset="1.415836e-02" style="stop-color:#117B42"/>
					<stop  offset="7.870743e-02" style="stop-color:#176044"/>
					<stop  offset="0.1499" style="stop-color:#184A43"/>
					<stop  offset="0.2271" style="stop-color:#18383F"/>
					<stop  offset="0.3124" style="stop-color:#182B3A"/>
					<stop  offset="0.4091" style="stop-color:#182235"/>
					<stop  offset="0.524" style="stop-color:#171B32"/>
					<stop  offset="0.6749" style="stop-color:#16182F"/>
					<stop  offset="1" style="stop-color:#16172F"/>
				</linearGradient>
				<path class="st11" d="M780.2,346.8c2.8,1.6,23.9,13.3,20.5,20.4c0,0-1.9,2.4-12.1,1.6c0,0-12.2,0.2-25.6,1.4
					c-14.5-20.1,6.9-31.3,6.9-31.3C774.4,342.9,778.7,345.9,780.2,346.8z"/>
				<linearGradient id="SVGID_5_" gradientUnits="userSpaceOnUse" x1="642.5857" y1="376.8614" x2="694.9718" y2="349.9527">
					<stop  offset="0" style="stop-color:#804077"/>
					<stop  offset="0.2" style="stop-color:#7F4181"/>
					<stop  offset="0.4" style="stop-color:#754181"/>
					<stop  offset="0.4704" style="stop-color:#744281"/>
					<stop  offset="0.5018" style="stop-color:#724781"/>
					<stop  offset="0.5256" style="stop-color:#6E4F80"/>
					<stop  offset="0.5454" style="stop-color:#69597E"/>
					<stop  offset="0.5628" style="stop-color:#616479"/>
					<stop  offset="0.5785" style="stop-color:#577071"/>
					<stop  offset="0.5926" style="stop-color:#4A7C63"/>
					<stop  offset="0.6" style="stop-color:#408259"/>
					<stop  offset="0.8" style="stop-color:#2E824E"/>
					<stop  offset="1" style="stop-color:#188140"/>
				</linearGradient>
				<path class="st12" d="M759.8,326.5c1.9,4.3,6,8.8,10.1,12.4c0,0-21.4,11.1-6.9,31.3c-12.9,1.1-26.9,3.1-32.2,6.5
					c0,0-21.1,11.4-43.8,30.1c-29.6-39-27.9-88.9-27.9-88.9c8.6-8.2,19.3-16.4,29.3-18.5c21.6-4.7,43.5-3.1,60.2,11
					C748.7,310.4,755.9,317.6,759.8,326.5z"/>
				<linearGradient id="SVGID_6_" gradientUnits="userSpaceOnUse" x1="648.8033" y1="388.9659" x2="701.1894" y2="362.0572">
					<stop  offset="0" style="stop-color:#804077"/>
					<stop  offset="0.2" style="stop-color:#7F4181"/>
					<stop  offset="0.4" style="stop-color:#754181"/>
					<stop  offset="0.4704" style="stop-color:#744281"/>
					<stop  offset="0.5018" style="stop-color:#724781"/>
					<stop  offset="0.5256" style="stop-color:#6E4F80"/>
					<stop  offset="0.5454" style="stop-color:#69597E"/>
					<stop  offset="0.5628" style="stop-color:#616479"/>
					<stop  offset="0.5785" style="stop-color:#577071"/>
					<stop  offset="0.5926" style="stop-color:#4A7C63"/>
					<stop  offset="0.6" style="stop-color:#408259"/>
					<stop  offset="0.8" style="stop-color:#2E824E"/>
					<stop  offset="1" style="stop-color:#188140"/>
				</linearGradient>
				<path class="st13" d="M659.2,317.9c0,0-1.7,49.8,27.9,88.9c-16.7,13.7-34.3,31.4-45,51.4V336.8
					C642.1,336.8,649.2,327.4,659.2,317.9z"/>
			</g>
			<g>
			</g>
		</g>
	</g>
	<g>
		<path class="st14" d="M742.2,317.3c-6.2-0.9-3.6-6.1-20.6-6.5"/>
	</g>
</g>
<g id="градиент" class="st15">
	<g class="st16">
		<rect x="472.3" y="67.1" class="st8" width="92.1" height="65.6"/>
		<rect x="473.6" y="67.1" class="st17" width="92.1" height="65.6"/>
		<rect x="474.8" y="67.1" class="st18" width="92.1" height="65.6"/>
		<rect x="476.1" y="67.1" class="st19" width="92.1" height="65.6"/>
		<rect x="477.4" y="67.1" class="st20" width="92.1" height="65.6"/>
		<rect x="478.7" y="67.1" class="st21" width="92.1" height="65.6"/>
		<rect x="479.9" y="67.1" class="st22" width="92.1" height="65.6"/>
		<rect x="481.2" y="67.1" class="st23" width="92.1" height="65.6"/>
		<rect x="482.5" y="67.1" class="st24" width="92.1" height="65.6"/>
		<rect x="483.8" y="67.1" class="st25" width="92.1" height="65.6"/>
		<rect x="485" y="67.1" class="st26" width="92.1" height="65.6"/>
		<rect x="486.3" y="67.1" class="st27" width="92.1" height="65.6"/>
		<rect x="487.6" y="67.1" class="st28" width="92.1" height="65.6"/>
		<rect x="488.9" y="67.1" class="st29" width="92.1" height="65.6"/>
		<rect x="490.1" y="67.1" class="st30" width="92.1" height="65.6"/>
		<rect x="491.4" y="67.1" class="st31" width="92.1" height="65.6"/>
		<rect x="492.7" y="67.1" class="st32" width="92.1" height="65.6"/>
		<rect x="494" y="67.1" class="st33" width="92.1" height="65.6"/>
		<rect x="495.2" y="67.1" class="st34" width="92.1" height="65.6"/>
		<rect x="496.5" y="67.1" class="st35" width="92.1" height="65.6"/>
		<rect x="497.8" y="67.1" class="st36" width="92.1" height="65.6"/>
		<rect x="499.1" y="67.1" class="st37" width="92.1" height="65.6"/>
		<rect x="500.3" y="67.1" class="st38" width="92.1" height="65.6"/>
		<rect x="501.6" y="67.1" class="st39" width="92.1" height="65.6"/>
		<rect x="502.9" y="67.1" class="st40" width="92.1" height="65.6"/>
		<rect x="504.2" y="67.1" class="st41" width="92.1" height="65.6"/>
		<rect x="505.4" y="67.1" class="st42" width="92.1" height="65.6"/>
		<rect x="506.7" y="67.1" class="st43" width="92.1" height="65.6"/>
		<rect x="508" y="67.1" class="st44" width="92.1" height="65.6"/>
		<rect x="509.3" y="67.1" class="st45" width="92.1" height="65.6"/>
		<rect x="510.5" y="67.1" class="st46" width="92.1" height="65.6"/>
		<rect x="511.8" y="67.1" class="st47" width="92.1" height="65.6"/>
		<rect x="513.1" y="67.1" class="st48" width="92.1" height="65.6"/>
		<rect x="514.4" y="67.1" class="st49" width="92.1" height="65.6"/>
		<rect x="515.6" y="67.1" class="st50" width="92.1" height="65.6"/>
		<rect x="516.9" y="67.1" class="st51" width="92.1" height="65.6"/>
		<rect x="518.2" y="67.1" class="st52" width="92.1" height="65.6"/>
		<rect x="519.5" y="67.1" class="st53" width="92.1" height="65.6"/>
		<rect x="520.8" y="67.1" class="st54" width="92.1" height="65.6"/>
		<rect x="522" y="67.1" class="st55" width="92.1" height="65.6"/>
		<rect x="523.3" y="67.1" class="st56" width="92.1" height="65.6"/>
		<rect x="524.6" y="67.1" class="st57" width="92.1" height="65.6"/>
		<rect x="525.9" y="67.1" class="st58" width="92.1" height="65.6"/>
		<rect x="527.1" y="67.1" class="st59" width="92.1" height="65.6"/>
		<rect x="528.4" y="67.1" class="st60" width="92.1" height="65.6"/>
		<rect x="529.7" y="67.1" class="st61" width="92.1" height="65.6"/>
		<rect x="531" y="67.1" class="st62" width="92.1" height="65.6"/>
		<rect x="532.2" y="67.1" class="st63" width="92.1" height="65.6"/>
		<rect x="533.5" y="67.1" class="st64" width="92.1" height="65.6"/>
		<rect x="534.8" y="67.1" class="st65" width="92.1" height="65.6"/>
		<rect x="536.1" y="67.1" class="st66" width="92.1" height="65.6"/>
		<rect x="537.3" y="67.1" class="st67" width="92.1" height="65.6"/>
		<rect x="538.6" y="67.1" class="st68" width="92.1" height="65.6"/>
		<rect x="539.9" y="67.1" class="st69" width="92.1" height="65.6"/>
		<rect x="541.2" y="67.1" class="st70" width="92.1" height="65.6"/>
		<rect x="542.4" y="67.1" class="st71" width="92.1" height="65.6"/>
		<rect x="543.7" y="67.1" class="st72" width="92.1" height="65.6"/>
		<rect x="545" y="67.1" class="st73" width="92.1" height="65.6"/>
		<rect x="546.3" y="67.1" class="st74" width="92.1" height="65.6"/>
		<rect x="547.5" y="67.1" class="st75" width="92.1" height="65.6"/>
		<rect x="548.8" y="67.1" class="st76" width="92.1" height="65.6"/>
		<rect x="550.1" y="67.1" class="st77" width="92.1" height="65.6"/>
		<rect x="551.4" y="67.1" class="st78" width="92.1" height="65.6"/>
		<rect x="552.6" y="67.1" class="st79" width="92.1" height="65.6"/>
		<rect x="553.9" y="67.1" class="st80" width="92.1" height="65.6"/>
		<rect x="555.2" y="67.1" class="st81" width="92.1" height="65.6"/>
		<rect x="556.5" y="67.1" class="st82" width="92.1" height="65.6"/>
		<rect x="557.7" y="67.1" class="st83" width="92.1" height="65.6"/>
		<rect x="559" y="67.1" class="st84" width="92.1" height="65.6"/>
		<rect x="560.3" y="67.1" class="st85" width="92.1" height="65.6"/>
		<rect x="561.6" y="67.1" class="st86" width="92.1" height="65.6"/>
		<rect x="562.8" y="67.1" class="st87" width="92.1" height="65.6"/>
		<rect x="564.1" y="67.1" class="st88" width="92.1" height="65.6"/>
		<rect x="565.4" y="67.1" class="st89" width="92.1" height="65.6"/>
		<rect x="566.7" y="67.1" class="st90" width="92.1" height="65.6"/>
		<rect x="567.9" y="67.1" class="st91" width="92.1" height="65.6"/>
		<rect x="569.2" y="67.1" class="st92" width="92.1" height="65.6"/>
		<rect x="570.5" y="67.1" class="st93" width="92.1" height="65.6"/>
		<rect x="571.8" y="67.1" class="st94" width="92.1" height="65.6"/>
		<rect x="573" y="67.1" class="st95" width="92.1" height="65.6"/>
		<rect x="574.3" y="67.1" class="st96" width="92.1" height="65.6"/>
		<rect x="575.6" y="67.1" class="st97" width="92.1" height="65.6"/>
		<rect x="576.9" y="67.1" class="st98" width="92.1" height="65.6"/>
		<rect x="578.1" y="67.1" class="st99" width="92.1" height="65.6"/>
		<rect x="579.4" y="67.1" class="st100" width="92.1" height="65.6"/>
		<rect x="580.7" y="67.1" class="st101" width="92.1" height="65.6"/>
		<rect x="582" y="67.1" class="st102" width="92.1" height="65.6"/>
		<rect x="583.3" y="67.1" class="st103" width="92.1" height="65.6"/>
		<rect x="584.5" y="67.1" class="st104" width="92.1" height="65.6"/>
		<rect x="585.8" y="67.1" class="st105" width="92.1" height="65.6"/>
		<rect x="587.1" y="67.1" class="st106" width="92.1" height="65.6"/>
		<rect x="588.4" y="67.1" class="st107" width="92.1" height="65.6"/>
		<rect x="589.6" y="67.1" class="st108" width="92.1" height="65.6"/>
		<rect x="590.9" y="67.1" class="st109" width="92.1" height="65.6"/>
		<rect x="592.2" y="67.1" class="st110" width="92.1" height="65.6"/>
		<rect x="593.5" y="67.1" class="st111" width="92.1" height="65.6"/>
		<rect x="594.7" y="67.1" class="st112" width="92.1" height="65.6"/>
		<rect x="596" y="67.1" class="st113" width="92.1" height="65.6"/>
		<rect x="597.3" y="67.1" class="st114" width="92.1" height="65.6"/>
		<rect x="598.6" y="67.1" class="st115" width="92.1" height="65.6"/>
		<rect x="599.8" y="67.1" class="st116" width="92.1" height="65.6"/>
		<rect x="601.1" y="67.1" class="st117" width="92.1" height="65.6"/>
	</g>
	<linearGradient id="SVGID_7_" gradientUnits="userSpaceOnUse" x1="556.2275" y1="204.009" x2="651.3488" y2="204.009">
		<stop  offset="0" style="stop-color:#804077"/>
		<stop  offset="0.2" style="stop-color:#744080"/>
		<stop  offset="0.4" style="stop-color:#5B4181"/>
		<stop  offset="0.4356" style="stop-color:#574D7D"/>
		<stop  offset="0.5125" style="stop-color:#4C676A"/>
		<stop  offset="0.6" style="stop-color:#3F8040"/>
		<stop  offset="0.8" style="stop-color:#40804B"/>
		<stop  offset="1" style="stop-color:#408058"/>
	</linearGradient>
	<rect x="556.2" y="176" class="st118" width="95.1" height="55.9"/>
	<linearGradient id="SVGID_8_" gradientUnits="userSpaceOnUse" x1="673.1309" y1="198.4773" x2="709.3143" y2="198.4773">
		<stop  offset="0" style="stop-color:#804077"/>
		<stop  offset="0.1613" style="stop-color:#804A92"/>
		<stop  offset="0.2" style="stop-color:#804D99"/>
		<stop  offset="0.3205" style="stop-color:#674488"/>
		<stop  offset="0.4" style="stop-color:#5B4181"/>
		<stop  offset="0.4368" style="stop-color:#574E7D"/>
		<stop  offset="0.5169" style="stop-color:#4C6968"/>
		<stop  offset="0.6" style="stop-color:#3F8040"/>
		<stop  offset="0.8" style="stop-color:#40804B"/>
		<stop  offset="1" style="stop-color:#408058"/>
	</linearGradient>
	<rect x="673.1" y="180.4" class="st119" width="36.2" height="36.2"/>
	<linearGradient id="SVGID_9_" gradientUnits="userSpaceOnUse" x1="735.4185" y1="134.3746" x2="780.3524" y2="134.3746">
		<stop  offset="0" style="stop-color:#804077"/>
		<stop  offset="0.2" style="stop-color:#744080"/>
		<stop  offset="0.4" style="stop-color:#5B4181"/>
		<stop  offset="0.4356" style="stop-color:#574D7D"/>
		<stop  offset="0.5125" style="stop-color:#4C676A"/>
		<stop  offset="0.6" style="stop-color:#3F8040"/>
		<stop  offset="0.8" style="stop-color:#40804B"/>
		<stop  offset="1" style="stop-color:#408058"/>
	</linearGradient>
	<rect x="735.4" y="110" class="st120" width="44.9" height="48.8"/>
	<linearGradient id="SVGID_10_" gradientUnits="userSpaceOnUse" x1="763.322" y1="213.0936" x2="795.285" y2="213.0936">
		<stop  offset="0" style="stop-color:#804077"/>
		<stop  offset="0.2" style="stop-color:#744080"/>
		<stop  offset="0.4" style="stop-color:#5B4181"/>
		<stop  offset="0.4356" style="stop-color:#574D7D"/>
		<stop  offset="0.5125" style="stop-color:#4C676A"/>
		<stop  offset="0.6" style="stop-color:#3F8040"/>
		<stop  offset="0.8" style="stop-color:#40804B"/>
		<stop  offset="1" style="stop-color:#408058"/>
	</linearGradient>
	<rect x="763.3" y="191.2" class="st121" width="32" height="43.7"/>
	<linearGradient id="SVGID_11_" gradientUnits="userSpaceOnUse" x1="567.1699" y1="266.1332" x2="653.1657" y2="266.1332">
		<stop  offset="0" style="stop-color:#822773"/>
		<stop  offset="0.5" style="stop-color:#823476"/>
		<stop  offset="1" style="stop-color:#804077"/>
	</linearGradient>
	<rect x="567.2" y="250.5" class="st122" width="86" height="31.3"/>
	<linearGradient id="SVGID_12_" gradientUnits="userSpaceOnUse" x1="681.6931" y1="254.9339" x2="720.6083" y2="254.9339">
		<stop  offset="0" style="stop-color:#822172"/>
		<stop  offset="0.2" style="stop-color:#822774"/>
		<stop  offset="0.4" style="stop-color:#832E76"/>
		<stop  offset="0.6" style="stop-color:#823476"/>
		<stop  offset="0.8" style="stop-color:#813A76"/>
		<stop  offset="1" style="stop-color:#804077"/>
	</linearGradient>
	<rect x="681.7" y="238.3" class="st123" width="38.9" height="33.3"/>
	<linearGradient id="SVGID_13_" gradientUnits="userSpaceOnUse" x1="748.4545" y1="387.1434" x2="789.0609" y2="387.1434">
		<stop  offset="0" style="stop-color:#0E8140"/>
		<stop  offset="1.415836e-02" style="stop-color:#117B42"/>
		<stop  offset="7.870743e-02" style="stop-color:#176044"/>
		<stop  offset="0.1499" style="stop-color:#184A43"/>
		<stop  offset="0.2271" style="stop-color:#18383F"/>
		<stop  offset="0.3124" style="stop-color:#182B3A"/>
		<stop  offset="0.4091" style="stop-color:#182235"/>
		<stop  offset="0.524" style="stop-color:#171B32"/>
		<stop  offset="0.6749" style="stop-color:#16182F"/>
		<stop  offset="1" style="stop-color:#16172F"/>
	</linearGradient>
	<rect x="748.5" y="378.2" class="st124" width="40.6" height="17.8"/>
	<linearGradient id="SVGID_14_" gradientUnits="userSpaceOnUse" x1="802.1326" y1="320.5974" x2="824.382" y2="320.5974">
		<stop  offset="0" style="stop-color:#0E8140"/>
		<stop  offset="1.415836e-02" style="stop-color:#117B42"/>
		<stop  offset="7.870743e-02" style="stop-color:#176044"/>
		<stop  offset="0.1499" style="stop-color:#184A43"/>
		<stop  offset="0.2271" style="stop-color:#18383F"/>
		<stop  offset="0.3124" style="stop-color:#182B3A"/>
		<stop  offset="0.4091" style="stop-color:#182235"/>
		<stop  offset="0.524" style="stop-color:#171B32"/>
		<stop  offset="0.6749" style="stop-color:#16182F"/>
		<stop  offset="1" style="stop-color:#16172F"/>
	</linearGradient>
	<rect x="802.1" y="303.4" class="st125" width="22.2" height="34.5"/>
	
		<image style="display:inline;overflow:visible;" width="296" height="225" xlink:href="9F70028C.jpg"  transform="matrix(1 0 0 1 801.0374 109.9787)">
	</image>
	<rect x="705.8" y="415.5" class="st126" width="112.1" height="78.1"/>
	<g id="XMLID_6_" class="st16">
		<g>
			<rect x="174.2" y="67.1" class="st1" width="128.1" height="45.2"/>
		</g>
		<g>
		</g>
	</g>
	<rect x="234.7" y="132.7" class="st127" width="55.8" height="55.8"/>
</g>
<g id="глаз">
	
		<ellipse transform="matrix(0.7577 -0.6526 0.6526 0.7577 -33.97 557.4155)" class="st128" cx="733.6" cy="324.5" rx="6.7" ry="8.3"/>
	<circle class="st129" cx="734" cy="325" r="3.5"/>
</g>
</svg>
