<svg xmlns="http://www.w3.org/2000/svg" viewBox="0 0 39.48 39.48"><defs><style>.cls-1{fill:#1d1d1b;}.cls-2{fill:#cbbba0;}.cls-3{fill:none;stroke:#1d1d1b;stroke-miterlimit:10;stroke-width:0.5px;}</style></defs><title>Заднее колесо</title><g id="Слой_2" data-name="Слой 2"><g id="_5_слой_машина_" data-name="5 слой(машина)"><g id="Заднее_колесо" data-name="Заднее колесо"><path class="cls-1" d="M19.5,34.13h.24a14.41,14.41,0,0,0,14.4-13.9c0-.17,0-.33,0-.5A14.41,14.41,0,0,0,19.74,5.33H19.5A14.38,14.38,0,0,0,5.34,19.74a1.77,1.77,0,0,0,0,.23A14.4,14.4,0,0,0,19.5,34.13ZM19.74.25A19.49,19.49,0,1,1,.25,19.74,19.48,19.48,0,0,1,19.74.25Z" transform="translate(0 0)"/><path class="cls-2" d="M34.14,20.24,19.63,20.1,19.52,20,30.06,9.68a14.35,14.35,0,0,1,4.09,10.06C34.15,19.91,34.15,20.07,34.14,20.24Z" transform="translate(0 0)"/><path class="cls-2" d="M29.68,30.15l-10-10,14.51.14a14.32,14.32,0,0,1-4.46,9.92Z" transform="translate(0 0)"/><path class="cls-2" d="M30.06,9.68,19.52,20l0,0V5.34h.24A14.4,14.4,0,0,1,30.06,9.68Z" transform="translate(0 0)"/><path class="cls-2" d="M29.68,30.15h0a14.33,14.33,0,0,1-9.94,4H19.5v-14h.13Z" transform="translate(0 0)"/><path class="cls-2" d="M19.5,20.1v14a14.29,14.29,0,0,1-10-4.31l9.94-9.72Z" transform="translate(0 0)"/><path class="cls-2" d="M19.5,20v0l-.09.09L5.35,20a1.77,1.77,0,0,1,0-.23,14.36,14.36,0,0,1,4-9.95Z" transform="translate(0 0)"/><path class="cls-2" d="M19.5,5.34V20L9.32,9.79A14.33,14.33,0,0,1,19.5,5.34Z" transform="translate(0 0)"/><path class="cls-2" d="M19.41,20.1,9.47,29.82A14.27,14.27,0,0,1,5.35,20Z" transform="translate(0 0)"/><circle class="cls-3" cx="19.74" cy="19.74" r="19.49"/><path class="cls-3" d="M34.14,20.24c0-.17,0-.33,0-.5A14.41,14.41,0,0,0,19.74,5.33H19.5A14.38,14.38,0,0,0,5.34,19.74a1.77,1.77,0,0,0,0,.23A14.4,14.4,0,0,0,19.5,34.13h.24a14.41,14.41,0,0,0,14.4-13.9Z" transform="translate(0 0)"/><polyline class="cls-3" points="9.32 9.79 19.5 19.97 19.52 19.99 19.63 20.1 29.68 30.15"/><polyline class="cls-3" points="30.06 9.68 19.52 19.99 19.5 20.01 19.41 20.1 9.47 29.82 9.46 29.83"/><polyline class="cls-3" points="19.5 5.33 19.5 5.34 19.5 19.97 19.5 20.01 19.5 20.1 19.5 34.13 19.5 34.14"/><polyline class="cls-3" points="5.34 19.97 5.35 19.97 19.41 20.1 19.5 20.1 19.63 20.1 34.14 20.24"/></g></g></g></svg>