<svg xmlns="http://www.w3.org/2000/svg" viewBox="0 0 41.78 41.79"><defs><style>.cls-1{fill:#1d1d1b;}.cls-2{fill:#cbbba0;}.cls-3{fill:none;stroke:#1d1d1b;stroke-miterlimit:10;stroke-width:0.5px;}</style></defs><title>Переднее колесо</title><g id="Слой_2" data-name="Слой 2"><g id="_5_слой_машина_" data-name="5 слой(машина)"><g id="Переднее_колесо" data-name="Переднее колесо"><path class="cls-1" d="M5.64,21.15a15.23,15.23,0,0,0,15,15h.26A15.27,15.27,0,0,0,36.14,21.43c0-.18,0-.36,0-.54A15.26,15.26,0,0,0,20.89,5.64h-.26a15.24,15.24,0,0,0-15,15.24A2.26,2.26,0,0,0,5.64,21.15ZM20.89.25A20.65,20.65,0,1,1,.25,20.89,20.64,20.64,0,0,1,20.89.25Z" transform="translate(0)"/><path class="cls-2" d="M20.78,21.29l15.36.14a15.15,15.15,0,0,1-4.72,10.5Z" transform="translate(0)"/><path class="cls-2" d="M31.82,10.25a15.17,15.17,0,0,1,4.33,10.64c0,.18,0,.36,0,.54l-15.36-.14-.13-.13Z" transform="translate(0)"/><path class="cls-2" d="M31.82,10.25,20.65,21.16l0,0V5.65h.26A15.2,15.2,0,0,1,31.82,10.25Z" transform="translate(0)"/><path class="cls-2" d="M20.78,21.29,31.42,31.93a15.19,15.19,0,0,1-10.53,4.22h-.26V21.29Z" transform="translate(0)"/><path class="cls-2" d="M20.63,21.29V36.14A15.18,15.18,0,0,1,10,31.58L20.53,21.29Z" transform="translate(0)"/><path class="cls-2" d="M20.63,21.14v.05l-.1.1L5.64,21.15a2.26,2.26,0,0,1,0-.26A15.19,15.19,0,0,1,9.85,10.36Z" transform="translate(0)"/><path class="cls-2" d="M20.63,5.65V21.14L9.85,10.36A15.18,15.18,0,0,1,20.63,5.65Z" transform="translate(0)"/><path class="cls-2" d="M20.53,21.29,10,31.58A15.17,15.17,0,0,1,5.64,21.15Z" transform="translate(0)"/><path class="cls-3" d="M41.53,20.89A20.64,20.64,0,1,1,20.89.25,20.65,20.65,0,0,1,41.53,20.89Z" transform="translate(0)"/><path class="cls-3" d="M36.14,21.43c0-.18,0-.36,0-.54A15.26,15.26,0,0,0,20.89,5.64h-.26a15.24,15.24,0,0,0-15,15.24,2.26,2.26,0,0,0,0,.26,15.23,15.23,0,0,0,15,15h.26A15.27,15.27,0,0,0,36.14,21.43Z" transform="translate(0)"/><polyline class="cls-3" points="9.85 10.36 20.63 21.14 20.65 21.16 20.78 21.29 31.42 31.93"/><polyline class="cls-3" points="31.82 10.25 20.65 21.16 20.63 21.19 20.53 21.29 10 31.58"/><polyline class="cls-3" points="20.63 5.64 20.63 5.65 20.63 21.14 20.63 21.19 20.63 21.29 20.63 36.14 20.63 36.15"/><polyline class="cls-3" points="5.63 21.15 5.64 21.15 20.53 21.29 20.63 21.29 20.78 21.29 36.14 21.43"/></g></g></g></svg>