<svg xmlns="http://www.w3.org/2000/svg" viewBox="0 0 316.25 95.27"><defs><style>.cls-1{fill:#dedc00;}.cls-2{fill:#e30613;}.cls-3{fill:#1d1d1b;}.cls-4{fill:#fcea10;}.cls-5{fill:#29235c;}.cls-6{fill:none;stroke:#1d1d1b;stroke-miterlimit:10;stroke-width:0.5px;}</style></defs><title>Ресурс 30</title><g id="Слой_2" data-name="Слой 2"><g id="_5_слой_машина_" data-name="5 слой(машина)"><path class="cls-1" d="M312.05,70.46c6.67-3.54,2.87,4.3,2.87,15S289.63,95,289.63,95c-20.13-59.1-44.07,0-44.07,0H84.91c-37.78-52.9-62.69,0-62.69,0H.39C-.49,83.24,2.83,74.4,8.22,67.74c.61.17,21,5.63,30.43-17.51a85.51,85.51,0,0,1,15.56-2.6C77.32,49.4,97.47,20.85,97.47,20.85,128.22-9.65,179.9,3.28,203.94,1.47S266,44.38,266,44.38c7-1.44,42.28,1.69,42.28,1.69a4.36,4.36,0,0,1,1.26-.24S297.37,65.8,313.1,64C312.62,67.66,312.05,70.46,312.05,70.46ZM209.75,90.69A59.4,59.4,0,0,1,239,47.63S229.25,2.1,162.25,6.4C100.76,7.85,83.16,52.7,83.16,52.7c2.65.72,1.69,37.13,1.69,37.13,9.4-2.41,78.85,0,78.85,0h.1S207.28,89.92,209.75,90.69Z" transform="translate(0 0)"/><path class="cls-2" d="M309.56,45.83c5-.18,4.48,10.76,3.54,18.12C297.37,65.8,309.56,45.83,309.56,45.83Z" transform="translate(0 0)"/><path class="cls-3" d="M167.63,11.08c58.38-.16,61.7,38.15,61.7,38.15s-60.87,2.45-59.2,0S167.63,11.08,167.63,11.08Z" transform="translate(0 0)"/><path class="cls-4" d="M162.25,6.4s2.89,78.27,1.45,83.43c0,0-69.45-2.41-78.85,0,0,0,1-36.41-1.69-37.13C83.16,52.7,100.76,7.85,162.25,6.4Zm-13,43.83s6.47-37.43,2.66-37c0,0-42.54,2.61-59,37C92.9,50.23,142,52.16,149.23,50.23Z" transform="translate(0 0)"/><path class="cls-4" d="M209.75,90.69c-2.47-.77-45.95-.86-45.95-.86h-.1c1.44-5.16-1.45-83.43-1.45-83.43C229.25,2.1,239,47.63,239,47.63A59.4,59.4,0,0,0,209.75,90.69Zm19.58-41.46S226,10.92,167.63,11.08c0,0,4.16,35.7,2.5,38.15S229.33,49.23,229.33,49.23Z" transform="translate(0 0)"/><path class="cls-3" d="M151.89,13.24c3.81-.44-2.66,37-2.66,37-7.26,1.93-56.33,0-56.33,0C109.35,15.85,151.89,13.24,151.89,13.24Z" transform="translate(0 0)"/><path class="cls-5" d="M38.65,50.23C29.25,73.37,8.83,67.91,8.22,67.74,16.19,57.85,28.69,52.8,38.65,50.23Z" transform="translate(0 0)"/><path class="cls-6" d="M8.22,67.74C2.83,74.4-.49,83.24.39,95H22.22s24.91-52.9,62.69,0H245.56s23.94-59.1,44.07,0c0,0,25.29,1.07,25.29-9.58s3.8-18.49-2.87-15c0,0,.57-2.8,1.05-6.51.94-7.36,1.5-18.3-3.54-18.12a4.36,4.36,0,0,0-1.26.24S273,42.94,266,44.38c0,0-38-44.72-62.08-42.91S128.22-9.65,97.47,20.85c0,0-20.15,28.55-43.26,26.78a85.51,85.51,0,0,0-15.56,2.6C28.69,52.8,16.19,57.85,8.22,67.74Z" transform="translate(0 0)"/><path class="cls-6" d="M163.7,89.83s-69.45-2.41-78.85,0c0,0,1-36.41-1.69-37.13,0,0,17.6-44.85,79.09-46.3C162.25,6.4,165.14,84.67,163.7,89.83Z" transform="translate(0 0)"/><path class="cls-6" d="M163.8,89.83s43.48.09,45.95.86A59.4,59.4,0,0,1,239,47.63S229.25,2.1,162.25,6.4" transform="translate(0 0)"/><path class="cls-6" d="M8.21,67.74h0c.61.17,21,5.63,30.43-17.51" transform="translate(0 0)"/><path class="cls-6" d="M309.56,45.83S297.37,65.8,313.1,64" transform="translate(0 0)"/><path class="cls-6" d="M151.89,13.24s-42.54,2.61-59,37c0,0,49.07,1.93,56.33,0C149.23,50.23,155.7,12.8,151.89,13.24Z" transform="translate(0 0)"/><path class="cls-6" d="M167.63,11.08s4.16,35.7,2.5,38.15,59.2,0,59.2,0S226,10.92,167.63,11.08Z" transform="translate(0 0)"/></g></g></svg>