<svg xmlns="http://www.w3.org/2000/svg" xmlns:xlink="http://www.w3.org/1999/xlink" viewBox="0 0 327.85 242.67"><defs><style>.cls-1{fill:url(#Градиент_фиолетовый);}.cls-2{fill:#951b81;}.cls-3{fill:#5e5c61;}.cls-4{fill:url(#Градиент_фиолетовый-2);}.cls-5{fill:url(#Градиент_фиолетовый-3);}</style><linearGradient id="Градиент_фиолетовый" x1="293.52" y1="66.49" x2="318.22" y2="62.56" gradientUnits="userSpaceOnUse"><stop offset="0" stop-color="#822172"/><stop offset="0.2" stop-color="#822774"/><stop offset="0.4" stop-color="#832e76"/><stop offset="0.6" stop-color="#823476"/><stop offset="0.8" stop-color="#813a76"/><stop offset="1" stop-color="#804077"/></linearGradient><linearGradient id="Градиент_фиолетовый-2" x1="289.76" y1="42.89" x2="314.46" y2="38.96" xlink:href="#Градиент_фиолетовый"/><linearGradient id="Градиент_фиолетовый-3" x1="287.52" y1="28.79" x2="312.22" y2="24.85" xlink:href="#Градиент_фиолетовый"/></defs><title>Body</title><g id="Слой_2" data-name="Слой 2"><g id="Body"><path class="cls-1" d="M274.59,23.57c0-.06,0-.12,0-.18l-.09-.29C297.67,15.79,328.1.25,328.1.25V121.59l-.3.18a101.93,101.93,0,0,1-13.12-7.34,90.36,90.36,0,0,1-11.27-8.78,84.69,84.69,0,0,1-12-13.47,88.79,88.79,0,0,1-7.85-13.45A94.65,94.65,0,0,1,278.71,66a103.71,103.71,0,0,1-3.12-13.53,113,113,0,0,1-1.4-14.27A112.81,112.81,0,0,1,274.59,23.57Z" transform="translate(-0.25 -0.25)"/><path class="cls-2" d="M328.1,121.59l-.12.27a1.51,1.51,0,0,1-.18-.09Z" transform="translate(-0.25 -0.25)"/><path class="cls-3" d="M327.8,121.77a1.51,1.51,0,0,0,.18.09c-8.66,19.72-42.13,60.51-42.13,60.51C168.32,340.53.25,138.88.25,138.88V54.13L259.34,26.64a82.44,82.44,0,0,0,15.18-3.54l.09.29c0,.06,0,.12,0,.18l-12.08,8.37,10.67,6.28-10.67,9.36,13.07,4.88-12,8.66L278.71,66l-11.82,9.26,15.5,4.06-9.06,11.47L291,92.52l-5.63,15.53,17.59-1.88-.36,16.67,11.79-7.93.43,14.85Z" transform="translate(-0.25 -0.25)"/><path class="cls-2" d="M327.8,121.77l-13,8-.43-14.85.31-.48A101.93,101.93,0,0,0,327.8,121.77Z" transform="translate(-0.25 -0.25)"/><path class="cls-2" d="M314.68,114.43l-.31.48-11.79,7.93.36-16.67.47-.52A90.36,90.36,0,0,0,314.68,114.43Z" transform="translate(-0.25 -0.25)"/><path class="cls-2" d="M303.41,105.65l-.47.52-17.59,1.88L291,92.52l.47-.34A84.69,84.69,0,0,0,303.41,105.65Z" transform="translate(-0.25 -0.25)"/><path class="cls-2" d="M291.45,92.18l-.47.34-17.65-1.74,9.06-11.47,1.21-.58A88.79,88.79,0,0,0,291.45,92.18Z" transform="translate(-0.25 -0.25)"/><path class="cls-2" d="M283.6,78.73l-1.21.58-15.5-4.06L278.71,66A94.65,94.65,0,0,0,283.6,78.73Z" transform="translate(-0.25 -0.25)"/><path class="cls-2" d="M278.71,66l-15.17-4.87,12-8.66h0A103.71,103.71,0,0,0,278.71,66Z" transform="translate(-0.25 -0.25)"/><path class="cls-4" d="M275.59,52.46h0l-13.07-4.88,10.67-9.36,1,0A113,113,0,0,0,275.59,52.46Z" transform="translate(-0.25 -0.25)"/><path class="cls-5" d="M262.51,31.94l12.08-8.37a112.81,112.81,0,0,0-.4,14.62l-1,0Z" transform="translate(-0.25 -0.25)"/></g></g></svg>