<svg xmlns="http://www.w3.org/2000/svg" xmlns:xlink="http://www.w3.org/1999/xlink" viewBox="0 0 158.96 161.15"><defs><style>.cls-1{fill:url(#Клюв-Голова);}.cls-2{fill:url(#Безымянный_градиент_210);}.cls-3{fill:url(#Безымянный_градиент_210-2);}.cls-4{fill:none;stroke:#1d1d1b;stroke-miterlimit:10;stroke-width:3px;}</style><linearGradient id="Клюв-Голова" x1="116.18" y1="57.79" x2="159.21" y2="57.79" gradientUnits="userSpaceOnUse"><stop offset="0" stop-color="#0e8140"/><stop offset="0.03" stop-color="#0f743e"/><stop offset="0.12" stop-color="#115739"/><stop offset="0.22" stop-color="#134036"/><stop offset="0.33" stop-color="#142d33"/><stop offset="0.46" stop-color="#152131"/><stop offset="0.63" stop-color="#16192f"/><stop offset="1" stop-color="#16172f"/></linearGradient><linearGradient id="Безымянный_градиент_210" x1="0.76" y1="80.11" x2="53.15" y2="53.2" gradientUnits="userSpaceOnUse"><stop offset="0" stop-color="#804077"/><stop offset="0.2" stop-color="#7f4181"/><stop offset="0.4" stop-color="#754181"/><stop offset="0.49" stop-color="#734380"/><stop offset="0.52" stop-color="#6d4a7b"/><stop offset="0.55" stop-color="#635773"/><stop offset="0.58" stop-color="#546968"/><stop offset="0.6" stop-color="#42805a"/><stop offset="0.6" stop-color="#408259"/><stop offset="0.8" stop-color="#2e824e"/><stop offset="1" stop-color="#188140"/></linearGradient><linearGradient id="Безымянный_градиент_210-2" x1="6.98" y1="92.21" x2="59.36" y2="65.31" xlink:href="#Безымянный_градиент_210"/></defs><title>Head</title><g id="Слой_2" data-name="Слой 2"><g id="Head"><path class="cls-1" d="M138.34,50c2.75,1.65,23.86,13.31,20.51,20.44,0,0-1.9,2.41-12.06,1.61,0,0-12.21.23-25.6,1.37-14.45-20.15,6.91-31.27,6.91-31.27A81.12,81.12,0,0,0,138.34,50Z" transform="translate(-0.25 -0.25)"/><path class="cls-2" d="M118,29.74c1.87,4.28,6,8.75,10.13,12.42,0,0-21.36,11.12-6.91,31.27-12.92,1.1-26.94,3.06-32.17,6.49A308,308,0,0,0,45.26,110c-29.55-39-27.9-88.85-27.9-88.85C26,13,36.67,4.78,46.68,2.61c21.64-4.69,43.5-3.06,60.21,11C106.89,13.64,114.11,20.87,118,29.74Z" transform="translate(-0.25 -0.25)"/><path class="cls-3" d="M17.36,21.15S15.71,71,45.26,110C28.56,123.74,11,141.42.25,161.4V40.06A176.24,176.24,0,0,1,17.36,21.15Z" transform="translate(-0.25 -0.25)"/><path class="cls-4" d="M100.4,20.58c-6.17-.86-3.59-6.15-20.57-6.54" transform="translate(-0.25 -0.25)"/></g></g></svg>