<svg xmlns="http://www.w3.org/2000/svg" viewBox="0 0 218.37 369.62"><defs><style>.cls-1{fill:#454447;}.cls-2{fill:#201f21;}.cls-3{fill:none;stroke:#1d1d1b;stroke-miterlimit:10;}</style></defs><title>левое Крыло</title><g id="Слой_2" data-name="Слой 2"><g id="левое_Крыло" data-name="левое Крыло"><path class="cls-1" d="M218.22.5,117.83,12.24c-1.28,28.6-36.76,36-36.76,36C88.27,63.15,66.91,79,66.91,79c12.89,11.37-4.25,28.54-4.25,28.54C91.39,114.24,67,135.54,67,135.54c30.08-1.85,10.64,37.89,10.64,37.89,23.69-11.88,22.63,27.1,22.63,27.1,19-1.41,20.87,26.38,20.87,26.38,2.11-4,3-13.2,3-13.2,1.25-21.94,28.29-39.72,28.29-39.72s35.16-21.42,27.66-90.13S218.22.5,218.22.5Z"/><path class="cls-2" d="M31.58,163.81c-33.36,41.09-18,99.34-18,99.34.47-15.7,28-51.25,31.7-54.4s3.17.7,3.17.7c-41.68,76.49-5.33,124.78-5.33,124.78.42-32.1,22.22-71.34,26.29-74.33S72.16,262,72.16,262C55,336.6,98.92,368.52,98.92,368.52c-9-61.77,20.07-137.6,22.17-141.61,0,0-1.83-27.79-20.87-26.38,0,0,1.06-39-22.63-27.1,0,0,19.44-39.74-10.64-37.89,0,0,24.44-21.3-4.29-28,0,0,17.14-17.17,4.25-28.54,0,0,21.36-15.8,14.16-30.75,0,0,35.48-7.36,36.76-36L97.49,14.62C45.79,38.11,60.75,52.31,60.75,52.31-6.06,81.06,31,90.07,31,90.07c-38,28.5-1,29.72-1,29.72-36.27,27.6-28.77,74.48-28.77,74.48C8.8,182.61,30.89,164.38,31.58,163.81Z"/><path class="cls-3" d="M31.59,163.8h0c-.69.57-22.78,18.8-30.44,30.46,0,0-7.5-46.88,28.77-74.48,0,0-37-1.22,1-29.72,0,0-37-9,29.8-37.76,0,0-15-14.2,36.74-37.69l20.34-2.38L218.22.5s-45.65,14.66-38.14,83.36S152.42,174,152.42,174s-27,17.78-28.29,39.72c0,0-.93,9.19-3,13.2S89.93,306.75,98.92,368.52c0,0-43.93-31.92-26.76-106.51,0,0,1.3-5.11-2.78-2.11s-25.87,42.23-26.29,74.33c0,0-36.35-48.29,5.33-124.78,0,0,.51-3.86-3.17-.7s-31.23,38.7-31.7,54.4c0,0-15.33-58.25,18-99.34"/><path class="cls-3" d="M121.09,226.91s-1.83-27.79-20.87-26.38c0,0,1.06-39-22.63-27.1,0,0,19.44-39.74-10.64-37.89,0,0,24.44-21.3-4.29-28,0,0,17.14-17.17,4.25-28.54,0,0,21.36-15.8,14.16-30.75,0,0,35.48-7.36,36.76-36"/></g></g></svg>