<svg xmlns="http://www.w3.org/2000/svg" viewBox="0 0 38.54 53.15"><defs><style>.cls-1{fill:#561214;}.cls-2{fill:#8c181b;}</style></defs><title>ноги</title><g id="Слой_2" data-name="Слой 2"><g id="ноги"><path id="дальняя" class="cls-1" d="M28,5.1s-5.16,17-6.11,17.84S9.7,35.5,7.2,30.76c0,0-10.88-16.84-5.89-22.55,0,0,2.22,2.49,2.11,4.94,0,0,.36.61.66.51S5.47,9.05,7.54,8.35c0,0,1.85,2.22.31,6.34,0,0-.39,8.6,5.28,4.54S15.26,6.17,8.25,4.07A9.25,9.25,0,0,1,20.11,8.48s1.61-7,2.14-8.48Z"/><path id="ближняя" class="cls-2" d="M38.54,17.42s-6.89,22.72-8.15,23.8S14.09,58,10.75,51.66c0,0-14.53-22.47-7.86-30.09,0,0,3,3.32,2.81,6.59,0,0,.48.81.88.68s1.85-6.16,4.61-7.09c0,0,2.48,3,.42,8.47,0,0-.51,11.46,7,6.05S21.51,18.85,12.14,16c0,0,10-4.42,15.83,5.89,0,0,2.15-9.3,2.85-11.32Z"/></g></g></svg>