<svg xmlns="http://www.w3.org/2000/svg" viewBox="0 0 236.04 396.51"><defs><style>.cls-1{fill:#3b3a3d;}.cls-2{fill:#5e5c61;}.cls-3{fill:none;stroke:#1d1d1b;stroke-miterlimit:10;}</style></defs><title>правое Крыло</title><g id="Слой_2" data-name="Слой 2"><g id="правое_Крыло" data-name="правое Крыло"><path class="cls-1" d="M127.57,13.05c0,1.09-.14,2.13-.29,3.16L228.34,4.09h0A41.24,41.24,0,0,1,235.89.5Z"/><path class="cls-2" d="M67.77,115.25c31,7.26,4.55,30.09,4.55,30.09,32.45-2,11.36,40.69,11.36,40.69,25.59-12.74,24.32,29.1,24.32,29.1,20.56-1.52,22.44,28.32,22.44,28.32,2.28-4.31,3.32-14.18,3.32-14.18,1.41-23.54,30.64-42.61,30.64-42.61s38-23,30.1-96.71c-5.63-52.67,17.89-75.74,31.8-84.61.71-.46,1.39-.87,2-1.25L127.28,16.21c-3.83,28.08-39.46,35.41-39.46,35.41,7.72,16.05-15.37,33-15.37,33C86.31,96.83,67.77,115.25,67.77,115.25Z"/><path class="cls-1" d="M34.08,175.68C-2,219.76,14.32,282.29,14.32,282.29c.57-16.86,30.38-55,34.36-58.38s3.42.76,3.42.76C7.27,306.1,45.38,357.78,46,358.57c.56-34.45,24.17-76.54,28.58-79.74s3,2.26,3,2.26c-18.75,80.05,28.54,114.32,28.54,114.32-9.51-66.3,22.07-147.66,24.35-152,0,0-1.88-29.84-22.44-28.32,0,0,1.27-41.84-24.32-29.1,0,0,21.09-42.64-11.36-40.69,0,0,26.43-22.83-4.55-30.09,0,0,18.54-18.42,4.68-30.63,0,0,23.09-17,15.37-33,0,0,35.63-7.33,39.46-35.41.15-1,.24-2.07.29-3.16l-21.94,2.54C49.8,40.78,65.88,56,65.88,56-5.42,86.49,32.73,96.31,33.62,96.54-7,126.75,31.51,128.4,32.4,128.44-6.79,158,1.16,208.35,1.16,208.35,9.44,195.84,33.34,176.29,34.08,175.68Z"/><path class="cls-3" d="M33.63,96.54h0c-.89-.23-39-10.05,32.26-40.51,0,0-16.08-15.25,39.75-40.44l21.94-2.54L235.89.5a41.24,41.24,0,0,0-7.54,3.59"/><path class="cls-3" d="M32.41,128.44h0c-.89,0-39.37-1.69,1.22-31.9"/><path class="cls-3" d="M34.1,175.67h0c-.74.61-24.64,20.16-32.92,32.67,0,0-7.95-50.31,31.24-79.91"/><path class="cls-3" d="M46,358.58h0c-.6-.79-38.71-52.47,6.12-133.9,0,0,.58-4.14-3.42-.76s-33.79,41.52-34.36,58.38c0,0-16.35-62.53,19.76-106.61"/><path class="cls-3" d="M228.34,4.09c-.65.38-1.33.79-2,1.25C212.39,14.21,188.87,37.28,194.5,90c7.89,73.74-30.1,96.71-30.1,96.71s-29.23,19.07-30.64,42.61c0,0-1,9.87-3.32,14.18s-33.86,85.66-24.35,152c0,0-47.29-34.27-28.54-114.32,0,0,1.41-5.48-3-2.26s-28,45.29-28.58,79.74"/><path class="cls-3" d="M130.44,243.45s-1.88-29.84-22.44-28.32c0,0,1.27-41.84-24.32-29.1,0,0,21.09-42.64-11.36-40.69,0,0,26.43-22.83-4.55-30.09,0,0,18.54-18.42,4.68-30.63,0,0,23.09-17,15.37-33,0,0,35.63-7.33,39.46-35.41.15-1,.24-2.07.29-3.16"/><polyline class="cls-3" points="127.28 16.21 228.34 4.09 228.35 4.09"/></g></g></svg>