<svg xmlns="http://www.w3.org/2000/svg" viewBox="0 0 267.96 124.2"><defs><style>.cls-1{fill:#5e5c61;}.cls-2{fill:#3b3a3d;}</style></defs><title>Хвост</title><g id="Слой_2" data-name="Слой 2"><g id="Хвост"><path class="cls-1" d="M268.21,1.17,254.94,84.76,249,79.2c-8,6.07-15.17-2-15.17-2-8.25,3-9.16-.76-9.16-.76-1.86-14-64.34,19.06-64.34,19.06a335.31,335.31,0,0,1-30.26,16.09c-170.73-8.41-41-105.9-41-105.9C146.74-2.76,268.21,1.17,268.21,1.17Z" transform="translate(-0.25 -0.25)"/><path class="cls-2" d="M130.06,111.56c-37,16.95-38.52,4.56-38.52,4.56-48.8,18.51-39.52.41-39.52.41-25.21,9.74-30.85-.56-30.85-.56-31.6,4.42,6.43-18.4,4.26-19.86s-.7-5.23-.7-5.23C4.8,92.43,8.07,82.18,8.07,82.18-4,80.83,1.52,75.41,1.52,75.41c25.76-10,21.14-15,21.14-15-10.4.15-12.55-8.73-13.79-11.69s27.44-8.4,27.44-8.4c-10.94-4.64-1.84-16.89-1.84-16.89C35.36,20.63,59.36,17,59.36,17c.82-5.19,12.38-8.83,29.69-11.35C89.05,5.66-40.67,103.15,130.06,111.56Z" transform="translate(-0.25 -0.25)"/></g></g></svg>