<svg xmlns="http://www.w3.org/2000/svg" viewBox="0 0 246.05 352.22"><defs><style>.cls-1,.cls-2{fill:#a48a7b;}.cls-1,.cls-2,.cls-3,.cls-4,.cls-5,.cls-6,.cls-7{stroke:#1d1d1b;stroke-miterlimit:10;}.cls-1,.cls-3,.cls-4,.cls-6{stroke-width:0.5px;}.cls-2,.cls-7{stroke-width:2px;}.cls-3{fill:#575756;}.cls-4{fill:#fcea10;}.cls-5,.cls-7{fill:none;}.cls-5{stroke-width:0.25px;}.cls-6{fill:#936037;}</style></defs><title>Ресурс 26</title><g id="Слой_2" data-name="Слой 2"><g id="_3_слой_Дома_" data-name="3 слой (Дома)"><rect class="cls-1" x="0.76" y="181.13" width="244.29" height="170.84"/><polyline class="cls-2" points="0.76 181.13 154.28 1.5 245.05 98.75 245.05 181.13"/><rect class="cls-3" x="88.63" y="91.32" width="41.4" height="89.82"/><rect class="cls-4" x="130.02" y="102.16" width="80.58" height="38.64"/><ellipse class="cls-5" cx="123.68" cy="137.58" rx="3.08" ry="0.65"/><line class="cls-4" x1="170.31" y1="102.16" x2="170.31" y2="140.79"/><polygon class="cls-6" points="8.29 172.32 245.05 172.32 245.05 162.94 16.31 162.94 8.29 172.32"/><polygon class="cls-6" points="245.05 153.47 24.41 153.47 33.22 143.15 245.05 143.15 245.05 153.47"/><rect class="cls-4" x="130.02" y="241.73" width="73.37" height="47.13"/><rect class="cls-4" x="32.74" y="241.73" width="33.6" height="47.13"/><line class="cls-4" x1="49.54" y1="241.73" x2="49.54" y2="288.86"/><line class="cls-4" x1="49.54" y1="253.83" x2="66.34" y2="253.83"/><line class="cls-4" x1="166.71" y1="241.73" x2="166.71" y2="288.86"/><line class="cls-4" x1="130.02" y1="251.91" x2="203.39" y2="251.91"/><line class="cls-7" x1="0.76" y1="181.13" x2="245.05" y2="181.13"/></g></g></svg>