<svg xmlns="http://www.w3.org/2000/svg" viewBox="0 0 520.59 379.28"><defs><style>.cls-1{fill:#f9b233;}.cls-2{fill:#063;}.cls-3{fill:#fcea10;}.cls-4{fill:#e94e1b;}.cls-5{fill:#008d36;}.cls-6{fill:#3aaa35;}.cls-7{fill:none;stroke:#1d1d1b;stroke-miterlimit:10;stroke-width:0.5px;}</style></defs><title>Ресурс 27</title><g id="Слой_2" data-name="Слой 2"><g id="_3_слой_Дома_" data-name="3 слой (Дома)"><path class="cls-1" d="M520.11,210.27V360.43L339.05,379V210.27h1.64a5.21,5.21,0,0,0,10.41,0,5.22,5.22,0,0,0,10.43,0,5.21,5.21,0,0,0,10.42,0,5.22,5.22,0,0,0,10.43,0h.31a5.22,5.22,0,0,0,10.43,0,5.2,5.2,0,1,0,10.4,0,5.22,5.22,0,0,0,10.43,0,5.22,5.22,0,0,0,10.43,0,5.2,5.2,0,1,0,10.4,0,5.22,5.22,0,0,0,10.43,0,5.21,5.21,0,0,0,10.42,0,5.21,5.21,0,0,0,10.41,0h.33a5.21,5.21,0,0,0,10.41,0,5.22,5.22,0,0,0,10.43,0,5.21,5.21,0,0,0,10.42,0,5.22,5.22,0,0,0,10.43,0,5.21,5.21,0,0,0,10.41,0ZM465.9,307.52V261.91H421.07V310.4l25.27-1.62Z"/><polygon class="cls-2" points="433.88 85.88 520.11 210.27 518.47 210.27 508.06 210.27 497.63 210.27 487.21 210.27 476.78 210.27 466.37 210.27 466.04 210.27 455.63 210.27 445.21 210.27 434.78 210.27 424.38 210.27 413.95 210.27 403.52 210.27 393.12 210.27 382.69 210.27 382.38 210.27 371.95 210.27 361.53 210.27 351.1 210.27 340.69 210.27 339.05 210.27 325.95 174.91 325.95 174.89 313.89 142.32 313.89 142.3 292.98 85.88 433.88 85.88"/><path class="cls-2" d="M508.06,210.27h10.41a5.21,5.21,0,0,1-10.41,0Z"/><path class="cls-2" d="M497.63,210.27h10.43a5.22,5.22,0,0,1-10.43,0Z"/><path class="cls-2" d="M487.21,210.27h10.42a5.21,5.21,0,0,1-10.42,0Z"/><path class="cls-2" d="M476.78,210.27h10.43a5.22,5.22,0,0,1-10.43,0Z"/><path class="cls-2" d="M466.37,210.27h10.41a5.21,5.21,0,0,1-10.41,0Z"/><path class="cls-2" d="M455.63,210.27H466a5.21,5.21,0,0,1-10.41,0Z"/><polygon class="cls-3" points="465.9 261.91 465.9 307.52 446.34 308.78 446.34 308.66 446.34 261.91 465.9 261.91"/><path class="cls-2" d="M445.21,210.27h10.42a5.21,5.21,0,0,1-10.42,0Z"/><polygon class="cls-3" points="446.34 308.66 446.34 308.78 421.07 310.4 421.07 261.91 446.34 261.91 446.34 308.66"/><path class="cls-2" d="M434.78,210.27h10.43a5.22,5.22,0,0,1-10.43,0Z"/><path class="cls-2" d="M424.38,210.27h10.4a5.2,5.2,0,1,1-10.4,0Z"/><path class="cls-2" d="M414,210.27h10.43a5.22,5.22,0,0,1-10.43,0Z"/><path class="cls-2" d="M403.52,210.27H414a5.22,5.22,0,0,1-10.43,0Z"/><path class="cls-2" d="M393.12,210.27h10.4a5.2,5.2,0,1,1-10.4,0Z"/><path class="cls-2" d="M382.69,210.27h10.43a5.22,5.22,0,0,1-10.43,0Z"/><path class="cls-2" d="M372,210.27h10.43a5.22,5.22,0,0,1-10.43,0Z"/><path class="cls-2" d="M361.53,210.27H372a5.21,5.21,0,0,1-10.42,0Z"/><path class="cls-2" d="M351.1,210.27h10.43a5.22,5.22,0,0,1-10.43,0Z"/><path class="cls-2" d="M340.69,210.27H351.1a5.21,5.21,0,0,1-10.41,0Z"/><path class="cls-1" d="M339.05,210.27V379H181.31V210.27H339.05Zm-59,104.17V261.91H240.86v52.53h39.22Z"/><polygon class="cls-4" points="325.95 174.91 339.05 210.27 325.95 175.34 325.95 174.91"/><polygon class="cls-5" points="325.95 175.34 339.05 210.27 325.95 210.27 325.95 175.34"/><polygon class="cls-5" points="325.95 175.34 325.95 210.27 313.89 210.27 313.89 143.16 325.95 175.34"/><polygon class="cls-4" points="325.95 174.91 325.95 175.34 313.89 143.16 313.89 142.32 325.95 174.89 325.95 174.91"/><path class="cls-5" d="M313.89,143.16v67.11H301.56v-100Z"/><path class="cls-5" d="M301.56,110.29v100H288.84V76.38Z"/><path class="cls-6" d="M288.84,76.38V210.27h-13v-92l-.28-.24a19.54,19.54,0,0,0-.21-25.34V40.3Z"/><rect class="cls-3" x="260.47" y="276.93" width="19.61" height="37.51"/><rect class="cls-3" x="260.47" y="261.91" width="19.61" height="15.02"/><path class="cls-6" d="M275.8,118.29v92H260.47V125.1a19.57,19.57,0,0,0,15-7Z"/><path class="cls-3" d="M275.31,92.71a19.61,19.61,0,1,1-29.69,0v0a19.59,19.59,0,0,1,29.69,0Z"/><path class="cls-6" d="M275.31,40.3V92.69a19.55,19.55,0,0,0-14.84-6.81V.71Z"/><polygon class="cls-3" points="260.47 276.93 260.47 314.44 240.86 314.44 240.86 261.91 260.47 261.91 260.47 276.93"/><path class="cls-6" d="M260.47,125.1v85.17H245.62v-92A19.56,19.56,0,0,0,260.47,125.1Z"/><path class="cls-6" d="M260.47.71V85.88a19.56,19.56,0,0,0-14.85,6.81V40.3Z"/><path class="cls-6" d="M245.62,118.29v92h-13V75.09l13-34.79V92.71a19.56,19.56,0,0,0,0,25.58Z"/><path class="cls-5" d="M232.58,75.09V210.27H219.87V109.89l-.28-.1,1.72-4.67Z"/><polygon class="cls-2" points="228.44 85.88 221.31 105.12 181.88 210.27 181.31 210.27 179.09 210.27 168.68 210.27 158.26 210.27 147.83 210.27 137.42 210.27 127 210.27 126.68 210.27 116.26 210.27 105.83 210.27 95.41 210.27 85 210.27 74.57 210.27 64.15 210.27 53.74 210.27 43.31 210.27 43 210.27 32.57 210.27 22.15 210.27 11.74 210.27 1.31 210.27 87.53 85.88 228.44 85.88"/><polygon class="cls-4" points="181.88 210.27 221.31 105.12 219.59 109.79 207.54 142.3 207.54 142.32 195.47 174.89 195.47 174.91 182.37 210.27 181.88 210.27"/><path class="cls-5" d="M219.87,109.89V210.27H207.54v-68l12.05-32.51Z"/><polygon class="cls-5" points="207.54 142.32 207.54 210.27 195.47 210.27 195.47 174.91 195.47 174.89 207.54 142.32"/><polygon class="cls-5" points="195.47 174.91 195.47 210.27 182.37 210.27 195.47 174.91"/><path class="cls-1" d="M181.31,210.27V379L.25,360.43V210.27H1.32a5.21,5.21,0,0,0,10.42,0,5.21,5.21,0,0,0,10.41,0,5.21,5.21,0,0,0,10.42,0,5.22,5.22,0,0,0,10.43,0h.31a5.22,5.22,0,0,0,10.43,0,5.21,5.21,0,0,0,10.41,0,5.21,5.21,0,0,0,10.42,0,5.22,5.22,0,0,0,10.43,0,5.21,5.21,0,0,0,10.41,0,5.21,5.21,0,0,0,10.42,0,5.22,5.22,0,0,0,10.43,0,5.21,5.21,0,0,0,10.42,0H127a5.21,5.21,0,0,0,10.42,0,5.21,5.21,0,0,0,10.41,0,5.22,5.22,0,0,0,10.43,0,5.21,5.21,0,0,0,10.42,0,5.21,5.21,0,0,0,10.41,0ZM109,310.4V261.91H64.15v45.61L86.55,309Z"/><path class="cls-2" d="M168.68,210.27h10.41a5.21,5.21,0,0,1-10.41,0Z"/><path class="cls-2" d="M158.26,210.27h10.42a5.21,5.21,0,0,1-10.42,0Z"/><path class="cls-2" d="M147.83,210.27h10.43a5.22,5.22,0,0,1-10.43,0Z"/><path class="cls-2" d="M137.42,210.27h10.41a5.21,5.21,0,0,1-10.41,0Z"/><path class="cls-2" d="M127,210.27h10.42a5.21,5.21,0,0,1-10.42,0Z"/><path class="cls-2" d="M116.26,210.27h10.42a5.21,5.21,0,0,1-10.42,0Z"/><path class="cls-2" d="M105.83,210.27h10.43a5.22,5.22,0,0,1-10.43,0Z"/><polygon class="cls-3" points="108.99 261.91 108.99 310.4 86.55 308.95 86.57 308.66 86.57 261.91 108.99 261.91"/><path class="cls-2" d="M95.41,210.27h10.42a5.21,5.21,0,0,1-10.42,0Z"/><path class="cls-2" d="M85,210.27H95.41a5.21,5.21,0,0,1-10.41,0Z"/><polygon class="cls-3" points="86.57 261.91 86.57 308.66 86.55 308.95 64.15 307.52 64.15 261.91 86.57 261.91"/><path class="cls-2" d="M74.57,210.27H85a5.22,5.22,0,0,1-10.43,0Z"/><path class="cls-2" d="M64.15,210.27H74.57a5.21,5.21,0,0,1-10.42,0Z"/><path class="cls-2" d="M53.74,210.27H64.15a5.21,5.21,0,0,1-10.41,0Z"/><path class="cls-2" d="M43.31,210.27H53.74a5.22,5.22,0,0,1-10.43,0Z"/><path class="cls-2" d="M32.57,210.27H43a5.22,5.22,0,0,1-10.43,0Z"/><path class="cls-2" d="M22.15,210.27H32.57a5.21,5.21,0,0,1-10.42,0Z"/><path class="cls-2" d="M11.74,210.27H22.15a5.21,5.21,0,0,1-10.41,0Z"/><path class="cls-2" d="M1.32,210.27H11.74a5.21,5.21,0,0,1-10.42,0Z"/><polyline class="cls-7" points="182.37 210.27 195.47 210.27 207.54 210.27 219.87 210.27 232.58 210.27 245.62 210.27 260.47 210.27 275.8 210.27 288.85 210.27 301.56 210.27 313.89 210.27 325.95 210.27 339.05 210.27 325.95 175.34 313.89 143.16 301.56 110.29 288.85 76.38 275.31 40.3 260.47 0.71 245.62 40.3 232.58 75.09 221.31 105.12 181.88 210.27"/><line class="cls-7" x1="340.69" y1="210.27" x2="339.05" y2="210.27"/><line class="cls-7" x1="382.69" y1="210.27" x2="382.38" y2="210.27"/><line class="cls-7" x1="466.37" y1="210.27" x2="466.04" y2="210.27"/><polyline class="cls-7" points="433.88 85.88 520.11 210.27 518.47 210.27"/><polyline class="cls-7" points="207.54 142.3 219.59 109.79 221.31 105.12 228.44 85.88 87.53 85.88 1.31 210.27"/><line class="cls-7" x1="195.47" y1="174.89" x2="207.54" y2="142.32"/><polyline class="cls-7" points="179.09 210.27 181.31 210.27 181.88 210.27 182.37 210.27 195.47 174.91"/><line class="cls-7" x1="126.68" y1="210.27" x2="127" y2="210.27"/><line class="cls-7" x1="43" y1="210.27" x2="43.31" y2="210.27"/><polyline class="cls-7" points="313.89 142.3 292.98 85.88 433.88 85.88"/><line class="cls-7" x1="325.95" y1="174.89" x2="313.89" y2="142.32"/><polyline class="cls-7" points="181.31 210.27 181.31 379.03 339.05 379.03 339.05 210.27 325.95 174.91"/><polyline class="cls-7" points="339.05 379.03 520.11 360.43 520.11 210.27"/><polyline class="cls-7" points="181.31 379.03 0.25 360.43 0.25 210.27"/><path class="cls-7" d="M245.62,92.71a19.62,19.62,0,1,0,29.69,0"/><path class="cls-7" d="M275.31,92.69a19.59,19.59,0,0,0-29.69,0"/><polygon class="cls-7" points="260.47 314.44 240.86 314.44 240.86 261.91 260.47 261.91 280.08 261.91 280.08 276.93 280.08 314.44 260.47 314.44"/><polygon class="cls-7" points="446.34 308.78 421.07 310.4 421.07 261.91 446.34 261.91 465.9 261.91 465.9 307.52 446.34 308.78"/><polygon class="cls-7" points="86.55 308.95 108.99 310.4 108.99 261.91 86.57 261.91 64.15 261.91 64.15 307.52 86.55 308.95"/><polyline class="cls-7" points="195.47 174.89 195.47 174.91 195.47 210.27"/><polyline class="cls-7" points="207.54 142.3 207.54 142.32 207.54 210.27"/><path class="cls-7" d="M219.87,210.27V109.89"/><polyline class="cls-7" points="232.58 210.27 232.58 75.09 232.58 74.88"/><line class="cls-7" x1="245.62" y1="210.27" x2="245.62" y2="118.29"/><polyline class="cls-7" points="325.95 174.89 325.95 174.91 325.95 175.34 325.95 210.27"/><polyline class="cls-7" points="313.89 142.3 313.89 142.32 313.89 143.16 313.89 210.27"/><path class="cls-7" d="M301.56,210.27V109.89"/><polyline class="cls-7" points="288.85 210.27 288.85 76.38 288.85 74.88"/><line class="cls-7" x1="275.8" y1="210.27" x2="275.8" y2="118.29"/><polyline class="cls-7" points="245.62 92.71 245.62 92.69 245.62 40.3 245.62 38.94"/><polyline class="cls-7" points="275.31 92.71 275.31 92.69 275.31 40.3 275.31 38.94"/><line class="cls-7" x1="260.47" y1="210.27" x2="260.47" y2="125.1"/><line class="cls-7" x1="260.47" y1="85.88" x2="260.47" y2="0.71"/><polyline class="cls-7" points="260.47 261.91 260.47 276.93 260.47 314.44"/><line class="cls-7" x1="260.47" y1="276.93" x2="280.08" y2="276.93"/><line class="cls-7" x1="446.34" y1="261.91" x2="446.34" y2="308.66"/><line class="cls-7" x1="86.57" y1="261.91" x2="86.57" y2="308.66"/><path class="cls-7" d="M1.32,210.27a5.21,5.21,0,0,0,10.42,0Z"/><path class="cls-7" d="M11.74,210.27a5.21,5.21,0,0,0,10.41,0Z"/><path class="cls-7" d="M22.15,210.27a5.21,5.21,0,0,0,10.42,0Z"/><path class="cls-7" d="M32.57,210.27a5.22,5.22,0,0,0,10.43,0Z"/><path class="cls-7" d="M43.31,210.27a5.22,5.22,0,0,0,10.43,0Z"/><path class="cls-7" d="M53.74,210.27a5.21,5.21,0,0,0,10.41,0Z"/><path class="cls-7" d="M64.15,210.27a5.21,5.21,0,0,0,10.42,0Z"/><path class="cls-7" d="M74.57,210.27a5.22,5.22,0,0,0,10.43,0Z"/><path class="cls-7" d="M85,210.27a5.21,5.21,0,0,0,10.41,0Z"/><path class="cls-7" d="M95.41,210.27a5.21,5.21,0,0,0,10.42,0Z"/><path class="cls-7" d="M105.83,210.27a5.22,5.22,0,0,0,10.43,0Z"/><path class="cls-7" d="M116.26,210.27a5.21,5.21,0,0,0,10.42,0Z"/><path class="cls-7" d="M127,210.27a5.21,5.21,0,0,0,10.42,0Z"/><path class="cls-7" d="M137.42,210.27a5.21,5.21,0,0,0,10.41,0Z"/><path class="cls-7" d="M147.83,210.27a5.22,5.22,0,0,0,10.43,0Z"/><path class="cls-7" d="M158.26,210.27a5.21,5.21,0,0,0,10.42,0Z"/><path class="cls-7" d="M168.68,210.27a5.21,5.21,0,0,0,10.41,0Z"/><path class="cls-7" d="M340.69,210.27a5.21,5.21,0,0,0,10.41,0Z"/><path class="cls-7" d="M351.1,210.27a5.22,5.22,0,0,0,10.43,0Z"/><path class="cls-7" d="M361.53,210.27a5.21,5.21,0,0,0,10.42,0Z"/><path class="cls-7" d="M372,210.27a5.22,5.22,0,0,0,10.43,0Z"/><path class="cls-7" d="M382.69,210.27a5.22,5.22,0,0,0,10.43,0Z"/><path class="cls-7" d="M393.12,210.27a5.2,5.2,0,1,0,10.4,0Z"/><path class="cls-7" d="M403.52,210.27a5.22,5.22,0,0,0,10.43,0Z"/><path class="cls-7" d="M414,210.27a5.22,5.22,0,0,0,10.43,0Z"/><path class="cls-7" d="M424.38,210.27a5.2,5.2,0,1,0,10.4,0Z"/><path class="cls-7" d="M434.78,210.27a5.22,5.22,0,0,0,10.43,0Z"/><path class="cls-7" d="M445.21,210.27a5.21,5.21,0,0,0,10.42,0Z"/><path class="cls-7" d="M455.63,210.27a5.21,5.21,0,0,0,10.41,0Z"/><path class="cls-7" d="M466.37,210.27a5.21,5.21,0,0,0,10.41,0Z"/><path class="cls-7" d="M476.78,210.27a5.22,5.22,0,0,0,10.43,0Z"/><path class="cls-7" d="M487.21,210.27a5.21,5.21,0,0,0,10.42,0Z"/><path class="cls-7" d="M497.63,210.27a5.22,5.22,0,0,0,10.43,0Z"/><path class="cls-7" d="M508.06,210.27a5.21,5.21,0,0,0,10.41,0Z"/></g></g></svg>